<mxfile host="65bd71144e">
    <diagram id="RU9GGIhCjG_e5zeOFzRk" name="Page-1">
        <mxGraphModel dx="4665" dy="3550" grid="1" gridSize="10" guides="1" tooltips="1" connect="1" arrows="1" fold="1" page="1" pageScale="1" pageWidth="850" pageHeight="1100" math="0" shadow="0">
            <root>
                <mxCell id="0"/>
                <mxCell id="1" parent="0"/>
                <mxCell id="2" value="users" style="whiteSpace=wrap;html=1;align=center;" parent="1" vertex="1">
                    <mxGeometry x="1150" y="240" width="100" height="40" as="geometry"/>
                </mxCell>
                <mxCell id="3" value="Member" style="whiteSpace=wrap;html=1;align=center;" parent="1" vertex="1">
                    <mxGeometry x="450" y="700" width="100" height="40" as="geometry"/>
                </mxCell>
                <mxCell id="4" value="dishes" style="whiteSpace=wrap;html=1;align=center;" parent="1" vertex="1">
                    <mxGeometry x="200" y="170" width="100" height="40" as="geometry"/>
                </mxCell>
                <mxCell id="5" value="orders" style="whiteSpace=wrap;html=1;align=center;" parent="1" vertex="1">
                    <mxGeometry x="35" y="810" width="100" height="40" as="geometry"/>
                </mxCell>
                <mxCell id="6" value="subscriptions" style="whiteSpace=wrap;html=1;align=center;" parent="1" vertex="1">
                    <mxGeometry x="1695" y="1670" width="100" height="40" as="geometry"/>
                </mxCell>
                <mxCell id="7" value="reviews" style="whiteSpace=wrap;html=1;align=center;" parent="1" vertex="1">
                    <mxGeometry x="525" y="10" width="100" height="40" as="geometry"/>
                </mxCell>
                <mxCell id="8" value="customer_feedback" style="whiteSpace=wrap;html=1;align=center;" parent="1" vertex="1">
                    <mxGeometry x="1045" y="400" width="120" height="40" as="geometry"/>
                </mxCell>
                <mxCell id="9" value="ingredients" style="whiteSpace=wrap;html=1;align=center;" parent="1" vertex="1">
                    <mxGeometry width="100" height="40" as="geometry"/>
                </mxCell>
                <mxCell id="10" value="subscription_payments" style="whiteSpace=wrap;html=1;align=center;" parent="1" vertex="1">
                    <mxGeometry x="260" y="1690" width="140" height="40" as="geometry"/>
                </mxCell>
                <mxCell id="11" value="dish_ingredients" style="whiteSpace=wrap;html=1;align=center;" parent="1" vertex="1">
                    <mxGeometry x="-30" y="170" width="100" height="40" as="geometry"/>
                </mxCell>
                <mxCell id="12" value="activity_logs" style="whiteSpace=wrap;html=1;align=center;" parent="1" vertex="1">
                    <mxGeometry x="1505" y="650" width="100" height="40" as="geometry"/>
                </mxCell>
                <mxCell id="13" value="notifications" style="whiteSpace=wrap;html=1;align=center;" parent="1" vertex="1">
                    <mxGeometry x="1767.5" width="100" height="40" as="geometry"/>
                </mxCell>
                <mxCell id="14" value="system_settings" style="whiteSpace=wrap;html=1;align=center;" parent="1" vertex="1">
                    <mxGeometry x="1930" y="-280" width="100" height="40" as="geometry"/>
                </mxCell>
                <mxCell id="18" value="memberships" style="whiteSpace=wrap;html=1;align=center;" parent="1" vertex="1">
                    <mxGeometry x="700" y="940" width="100" height="40" as="geometry"/>
                </mxCell>
                <mxCell id="19" value="customer_attendance" style="whiteSpace=wrap;html=1;align=center;" parent="1" vertex="1">
                    <mxGeometry x="1260" y="1035" width="140" height="40" as="geometry"/>
                </mxCell>
                <mxCell id="22" value="user_username" style="ellipse;whiteSpace=wrap;html=1;align=center;" parent="1" vertex="1">
                    <mxGeometry x="1645" y="130" width="100" height="40" as="geometry"/>
                </mxCell>
                <mxCell id="23" value="user_id" style="ellipse;whiteSpace=wrap;html=1;align=center;fontStyle=4;" parent="1" vertex="1">
                    <mxGeometry x="1530" y="140" width="100" height="40" as="geometry"/>
                </mxCell>
                <mxCell id="24" value="user_email" style="ellipse;whiteSpace=wrap;html=1;align=center;" parent="1" vertex="1">
                    <mxGeometry x="1745" y="160" width="100" height="40" as="geometry"/>
                </mxCell>
                <mxCell id="25" value="user_password_hash" style="ellipse;whiteSpace=wrap;html=1;align=center;" parent="1" vertex="1">
                    <mxGeometry x="1715" y="220" width="160" height="40" as="geometry"/>
                </mxCell>
                <mxCell id="26" value="user_type" style="ellipse;whiteSpace=wrap;html=1;align=center;" parent="1" vertex="1">
                    <mxGeometry x="1620" y="260" width="100" height="40" as="geometry"/>
                </mxCell>
                <mxCell id="27" value="user_status" style="ellipse;whiteSpace=wrap;html=1;align=center;" parent="1" vertex="1">
                    <mxGeometry x="1720" y="330" width="100" height="40" as="geometry"/>
                </mxCell>
                <mxCell id="28" value="user_verification_token" style="ellipse;whiteSpace=wrap;html=1;align=center;" parent="1" vertex="1">
                    <mxGeometry x="1640" y="380" width="165" height="40" as="geometry"/>
                </mxCell>
                <mxCell id="29" value="user_token_expire" style="ellipse;whiteSpace=wrap;html=1;align=center;" parent="1" vertex="1">
                    <mxGeometry x="1645" y="450" width="130" height="40" as="geometry"/>
                </mxCell>
                <mxCell id="31" value="" style="endArrow=none;html=1;rounded=0;entryX=0.5;entryY=1;entryDx=0;entryDy=0;exitX=1;exitY=0.5;exitDx=0;exitDy=0;" parent="1" source="2" target="22" edge="1">
                    <mxGeometry relative="1" as="geometry">
                        <mxPoint x="1170" y="270" as="sourcePoint"/>
                        <mxPoint x="1330" y="270" as="targetPoint"/>
                    </mxGeometry>
                </mxCell>
                <mxCell id="32" value="" style="endArrow=none;html=1;rounded=0;entryX=0;entryY=1;entryDx=0;entryDy=0;exitX=1;exitY=0.5;exitDx=0;exitDy=0;" parent="1" source="2" target="23" edge="1">
                    <mxGeometry relative="1" as="geometry">
                        <mxPoint x="1095" y="230.0000000000001" as="sourcePoint"/>
                        <mxPoint x="1170" y="150" as="targetPoint"/>
                    </mxGeometry>
                </mxCell>
                <mxCell id="33" value="" style="endArrow=none;html=1;rounded=0;entryX=0;entryY=1;entryDx=0;entryDy=0;exitX=1;exitY=0.5;exitDx=0;exitDy=0;" parent="1" source="2" target="24" edge="1">
                    <mxGeometry relative="1" as="geometry">
                        <mxPoint x="1250" y="330.0000000000001" as="sourcePoint"/>
                        <mxPoint x="1340" y="250" as="targetPoint"/>
                    </mxGeometry>
                </mxCell>
                <mxCell id="34" value="" style="endArrow=none;html=1;rounded=0;exitX=1;exitY=0.5;exitDx=0;exitDy=0;entryX=0;entryY=0.5;entryDx=0;entryDy=0;" parent="1" source="2" target="25" edge="1">
                    <mxGeometry relative="1" as="geometry">
                        <mxPoint x="1260" y="270.0000000000001" as="sourcePoint"/>
                        <mxPoint x="1315" y="290" as="targetPoint"/>
                    </mxGeometry>
                </mxCell>
                <mxCell id="35" value="" style="endArrow=none;html=1;rounded=0;exitX=1;exitY=0.5;exitDx=0;exitDy=0;entryX=0;entryY=0.5;entryDx=0;entryDy=0;" parent="1" source="2" target="26" edge="1">
                    <mxGeometry relative="1" as="geometry">
                        <mxPoint x="1250" y="330.0000000000001" as="sourcePoint"/>
                        <mxPoint x="1390.000000000005" y="340.0000000000001" as="targetPoint"/>
                    </mxGeometry>
                </mxCell>
                <mxCell id="36" value="" style="endArrow=none;html=1;rounded=0;exitX=1;exitY=0.5;exitDx=0;exitDy=0;entryX=0;entryY=0;entryDx=0;entryDy=0;" parent="1" source="2" target="27" edge="1">
                    <mxGeometry relative="1" as="geometry">
                        <mxPoint x="1225.36" y="324.1400000000001" as="sourcePoint"/>
                        <mxPoint x="1390.0046609406725" y="369.99786437626904" as="targetPoint"/>
                    </mxGeometry>
                </mxCell>
                <mxCell id="37" value="" style="endArrow=none;html=1;rounded=0;exitX=1;exitY=0.5;exitDx=0;exitDy=0;entryX=0.5;entryY=0;entryDx=0;entryDy=0;" parent="1" source="2" target="28" edge="1">
                    <mxGeometry relative="1" as="geometry">
                        <mxPoint x="1180" y="305.0000000000001" as="sourcePoint"/>
                        <mxPoint x="1350" y="415" as="targetPoint"/>
                    </mxGeometry>
                </mxCell>
                <mxCell id="38" value="" style="endArrow=none;html=1;rounded=0;exitX=1;exitY=0.5;exitDx=0;exitDy=0;entryX=0.5;entryY=0;entryDx=0;entryDy=0;" parent="1" source="2" target="29" edge="1">
                    <mxGeometry relative="1" as="geometry">
                        <mxPoint x="1260" y="270.0000000000001" as="sourcePoint"/>
                        <mxPoint x="1477.5" y="400" as="targetPoint"/>
                    </mxGeometry>
                </mxCell>
                <mxCell id="39" value="" style="edgeStyle=entityRelationEdgeStyle;fontSize=12;html=1;endArrow=ERmandOne;startArrow=ERmandOne;entryX=0;entryY=0.5;entryDx=0;entryDy=0;exitX=0.75;exitY=0;exitDx=0;exitDy=0;" parent="1" source="3" target="2" edge="1">
                    <mxGeometry width="100" height="100" relative="1" as="geometry">
                        <mxPoint x="540" y="610" as="sourcePoint"/>
                        <mxPoint x="1070" y="360" as="targetPoint"/>
                    </mxGeometry>
                </mxCell>
                <mxCell id="40" value="customer_profiles" style="whiteSpace=wrap;html=1;align=center;" parent="1" vertex="1">
                    <mxGeometry x="970" y="-150" width="120" height="40" as="geometry"/>
                </mxCell>
                <mxCell id="42" value="user_addresses" style="whiteSpace=wrap;html=1;align=center;" parent="1" vertex="1">
                    <mxGeometry x="1275" y="-165" width="120" height="40" as="geometry"/>
                </mxCell>
                <mxCell id="43" value="user_payment_methods" style="whiteSpace=wrap;html=1;align=center;" parent="1" vertex="1">
                    <mxGeometry x="1265" y="-530" width="155" height="40" as="geometry"/>
                </mxCell>
                <mxCell id="44" value="user_settings" style="whiteSpace=wrap;html=1;align=center;" parent="1" vertex="1">
                    <mxGeometry x="970" y="-860" width="120" height="40" as="geometry"/>
                </mxCell>
                <mxCell id="45" value="categories" style="whiteSpace=wrap;html=1;align=center;" parent="1" vertex="1">
                    <mxGeometry x="780" y="-470" width="100" height="40" as="geometry"/>
                </mxCell>
                <mxCell id="46" value="member_profiles" style="whiteSpace=wrap;html=1;align=center;" parent="1" vertex="1">
                    <mxGeometry x="355" y="1200" width="120" height="40" as="geometry"/>
                </mxCell>
                <mxCell id="47" value="order_items" style="whiteSpace=wrap;html=1;align=center;" parent="1" vertex="1">
                    <mxGeometry x="-300" y="660" width="100" height="40" as="geometry"/>
                </mxCell>
                <mxCell id="49" value="favourites" style="whiteSpace=wrap;html=1;align=center;" parent="1" vertex="1">
                    <mxGeometry x="-210" y="350" width="100" height="40" as="geometry"/>
                </mxCell>
                <mxCell id="50" value="nutritional_info" style="whiteSpace=wrap;html=1;align=center;" parent="1" vertex="1">
                    <mxGeometry x="740" y="-530" width="145" height="41.43" as="geometry"/>
                </mxCell>
                <mxCell id="51" value="subscription_plans" style="whiteSpace=wrap;html=1;align=center;" parent="1" vertex="1">
                    <mxGeometry x="1805" y="700" width="140" height="40" as="geometry"/>
                </mxCell>
                <mxCell id="52" value="admins" style="whiteSpace=wrap;html=1;align=center;" parent="1" vertex="1">
                    <mxGeometry x="1670" y="540" width="100" height="40" as="geometry"/>
                </mxCell>
                <mxCell id="53" value="payment_transactions" style="whiteSpace=wrap;html=1;align=center;" parent="1" vertex="1">
                    <mxGeometry x="160" y="690" width="140" height="40" as="geometry"/>
                </mxCell>
                <mxCell id="54" value="" style="edgeStyle=entityRelationEdgeStyle;fontSize=12;html=1;endArrow=ERmandOne;startArrow=ERmandOne;entryX=1;entryY=0.5;entryDx=0;entryDy=0;exitX=0;exitY=0.5;exitDx=0;exitDy=0;" parent="1" source="2" target="40" edge="1">
                    <mxGeometry width="100" height="100" relative="1" as="geometry">
                        <mxPoint x="1080" y="250" as="sourcePoint"/>
                        <mxPoint x="1180" y="150" as="targetPoint"/>
                    </mxGeometry>
                </mxCell>
                <mxCell id="56" value="" style="edgeStyle=entityRelationEdgeStyle;fontSize=12;html=1;endArrow=ERoneToMany;entryX=0;entryY=0.5;entryDx=0;entryDy=0;exitX=0.5;exitY=0;exitDx=0;exitDy=0;" parent="1" source="2" target="42" edge="1">
                    <mxGeometry width="100" height="100" relative="1" as="geometry">
                        <mxPoint x="1170" y="180" as="sourcePoint"/>
                        <mxPoint x="1270" y="80" as="targetPoint"/>
                    </mxGeometry>
                </mxCell>
                <mxCell id="57" value="" style="edgeStyle=entityRelationEdgeStyle;fontSize=12;html=1;endArrow=ERoneToMany;entryX=0;entryY=0.5;entryDx=0;entryDy=0;exitX=0.5;exitY=0;exitDx=0;exitDy=0;" parent="1" source="2" target="43" edge="1">
                    <mxGeometry width="100" height="100" relative="1" as="geometry">
                        <mxPoint x="1210" y="250" as="sourcePoint"/>
                        <mxPoint x="1150" y="-130" as="targetPoint"/>
                    </mxGeometry>
                </mxCell>
                <mxCell id="58" value="" style="edgeStyle=entityRelationEdgeStyle;fontSize=12;html=1;endArrow=ERmandOne;startArrow=ERmandOne;entryX=1;entryY=0.5;entryDx=0;entryDy=0;exitX=0;exitY=0.5;exitDx=0;exitDy=0;" parent="1" source="2" target="44" edge="1">
                    <mxGeometry width="100" height="100" relative="1" as="geometry">
                        <mxPoint x="1160" y="270" as="sourcePoint"/>
                        <mxPoint x="1120" y="-70" as="targetPoint"/>
                    </mxGeometry>
                </mxCell>
                <mxCell id="59" value="" style="edgeStyle=entityRelationEdgeStyle;fontSize=12;html=1;endArrow=ERmandOne;startArrow=ERmandOne;exitX=0;exitY=0.5;exitDx=0;exitDy=0;entryX=0.75;entryY=1;entryDx=0;entryDy=0;" parent="1" source="46" target="3" edge="1">
                    <mxGeometry width="100" height="100" relative="1" as="geometry">
                        <mxPoint x="850" y="610" as="sourcePoint"/>
                        <mxPoint x="660" y="740" as="targetPoint"/>
                    </mxGeometry>
                </mxCell>
                <mxCell id="60" value="" style="edgeStyle=entityRelationEdgeStyle;fontSize=12;html=1;endArrow=ERoneToMany;entryX=1;entryY=0.5;entryDx=0;entryDy=0;exitX=0;exitY=0.25;exitDx=0;exitDy=0;" parent="1" source="3" target="4" edge="1">
                    <mxGeometry width="100" height="100" relative="1" as="geometry">
                        <mxPoint x="730" y="480" as="sourcePoint"/>
                        <mxPoint x="830" y="380" as="targetPoint"/>
                    </mxGeometry>
                </mxCell>
                <mxCell id="61" value="" style="edgeStyle=entityRelationEdgeStyle;fontSize=12;html=1;endArrow=ERoneToMany;exitX=0.5;exitY=1;exitDx=0;exitDy=0;entryX=0;entryY=0.5;entryDx=0;entryDy=0;" parent="1" source="3" target="19" edge="1">
                    <mxGeometry width="100" height="100" relative="1" as="geometry">
                        <mxPoint x="950" y="670" as="sourcePoint"/>
                        <mxPoint x="1050" y="570" as="targetPoint"/>
                    </mxGeometry>
                </mxCell>
                <mxCell id="62" value="" style="edgeStyle=entityRelationEdgeStyle;fontSize=12;html=1;endArrow=ERoneToMany;entryX=1;entryY=0.5;entryDx=0;entryDy=0;exitX=0;exitY=0.5;exitDx=0;exitDy=0;" parent="1" source="45" target="4" edge="1">
                    <mxGeometry width="100" height="100" relative="1" as="geometry">
                        <mxPoint x="490" y="150" as="sourcePoint"/>
                        <mxPoint x="590" y="50" as="targetPoint"/>
                    </mxGeometry>
                </mxCell>
                <mxCell id="63" value="" style="edgeStyle=entityRelationEdgeStyle;fontSize=12;html=1;endArrow=ERoneToMany;entryX=1;entryY=0.5;entryDx=0;entryDy=0;exitX=0;exitY=0.5;exitDx=0;exitDy=0;" parent="1" source="4" target="11" edge="1">
                    <mxGeometry width="100" height="100" relative="1" as="geometry">
                        <mxPoint x="650" y="-80" as="sourcePoint"/>
                        <mxPoint x="600" y="170.00000000000023" as="targetPoint"/>
                    </mxGeometry>
                </mxCell>
                <mxCell id="64" value="" style="edgeStyle=entityRelationEdgeStyle;fontSize=12;html=1;endArrow=ERoneToMany;entryX=1;entryY=0.25;entryDx=0;entryDy=0;exitX=0;exitY=0.5;exitDx=0;exitDy=0;" parent="1" source="4" target="47" edge="1">
                    <mxGeometry width="100" height="100" relative="1" as="geometry">
                        <mxPoint x="550" y="190.00000000000023" as="sourcePoint"/>
                        <mxPoint x="490" y="-130" as="targetPoint"/>
                    </mxGeometry>
                </mxCell>
                <mxCell id="65" value="" style="edgeStyle=entityRelationEdgeStyle;fontSize=12;html=1;endArrow=ERoneToMany;entryX=0;entryY=0.5;entryDx=0;entryDy=0;exitX=1.015;exitY=0.813;exitDx=0;exitDy=0;exitPerimeter=0;" parent="1" source="4" target="7" edge="1">
                    <mxGeometry width="100" height="100" relative="1" as="geometry">
                        <mxPoint x="300" y="200" as="sourcePoint"/>
                        <mxPoint x="450" y="-50" as="targetPoint"/>
                    </mxGeometry>
                </mxCell>
                <mxCell id="66" value="" style="edgeStyle=entityRelationEdgeStyle;fontSize=12;html=1;endArrow=ERoneToMany;entryX=1;entryY=0.5;entryDx=0;entryDy=0;exitX=0;exitY=0.5;exitDx=0;exitDy=0;" parent="1" source="4" target="49" edge="1">
                    <mxGeometry width="100" height="100" relative="1" as="geometry">
                        <mxPoint x="540" y="160" as="sourcePoint"/>
                        <mxPoint x="490" y="-130" as="targetPoint"/>
                    </mxGeometry>
                </mxCell>
                <mxCell id="67" value="" style="edgeStyle=entityRelationEdgeStyle;fontSize=12;html=1;endArrow=ERmandOne;startArrow=ERmandOne;entryX=0;entryY=0.5;entryDx=0;entryDy=0;exitX=1;exitY=0.25;exitDx=0;exitDy=0;" parent="1" source="4" target="50" edge="1">
                    <mxGeometry width="100" height="100" relative="1" as="geometry">
                        <mxPoint x="680" y="120" as="sourcePoint"/>
                        <mxPoint x="780" y="20" as="targetPoint"/>
                    </mxGeometry>
                </mxCell>
                <mxCell id="68" value="" style="edgeStyle=entityRelationEdgeStyle;fontSize=12;html=1;endArrow=ERoneToMany;entryX=1;entryY=0.5;entryDx=0;entryDy=0;exitX=0.5;exitY=1;exitDx=0;exitDy=0;" parent="1" source="2" target="5" edge="1">
                    <mxGeometry width="100" height="100" relative="1" as="geometry">
                        <mxPoint x="540" y="640" as="sourcePoint"/>
                        <mxPoint x="640" y="540" as="targetPoint"/>
                    </mxGeometry>
                </mxCell>
                <mxCell id="69" value="" style="edgeStyle=entityRelationEdgeStyle;fontSize=12;html=1;endArrow=ERoneToMany;entryX=1;entryY=0.75;entryDx=0;entryDy=0;exitX=0;exitY=0.5;exitDx=0;exitDy=0;" parent="1" source="5" target="47" edge="1">
                    <mxGeometry width="100" height="100" relative="1" as="geometry">
                        <mxPoint x="1210" y="290" as="sourcePoint"/>
                        <mxPoint x="660" y="400" as="targetPoint"/>
                    </mxGeometry>
                </mxCell>
                <mxCell id="70" value="" style="edgeStyle=entityRelationEdgeStyle;fontSize=12;html=1;endArrow=ERoneToMany;entryX=1;entryY=0.5;entryDx=0;entryDy=0;exitX=0;exitY=0.5;exitDx=0;exitDy=0;" parent="1" source="51" target="6" edge="1">
                    <mxGeometry width="100" height="100" relative="1" as="geometry">
                        <mxPoint x="1590" y="850" as="sourcePoint"/>
                        <mxPoint x="1690" y="750" as="targetPoint"/>
                    </mxGeometry>
                </mxCell>
                <mxCell id="71" value="" style="edgeStyle=entityRelationEdgeStyle;fontSize=12;html=1;endArrow=ERoneToMany;entryX=0.5;entryY=0;entryDx=0;entryDy=0;exitX=0.5;exitY=1;exitDx=0;exitDy=0;" parent="1" source="2" target="6" edge="1">
                    <mxGeometry width="100" height="100" relative="1" as="geometry">
                        <mxPoint x="1220" y="350" as="sourcePoint"/>
                        <mxPoint x="1260" y="640" as="targetPoint"/>
                    </mxGeometry>
                </mxCell>
                <mxCell id="72" value="" style="edgeStyle=entityRelationEdgeStyle;fontSize=12;html=1;endArrow=ERoneToMany;entryX=1;entryY=0.5;entryDx=0;entryDy=0;exitX=0;exitY=0.5;exitDx=0;exitDy=0;" parent="1" source="6" target="10" edge="1">
                    <mxGeometry width="100" height="100" relative="1" as="geometry">
                        <mxPoint x="1360" y="730" as="sourcePoint"/>
                        <mxPoint x="1260" y="640" as="targetPoint"/>
                    </mxGeometry>
                </mxCell>
                <mxCell id="73" value="" style="edgeStyle=entityRelationEdgeStyle;fontSize=12;html=1;endArrow=ERoneToMany;entryX=1;entryY=0.5;entryDx=0;entryDy=0;exitX=0.5;exitY=0;exitDx=0;exitDy=0;" parent="1" source="2" target="7" edge="1">
                    <mxGeometry width="100" height="100" relative="1" as="geometry">
                        <mxPoint x="930" y="250" as="sourcePoint"/>
                        <mxPoint x="1030" y="150" as="targetPoint"/>
                    </mxGeometry>
                </mxCell>
                <mxCell id="74" value="" style="edgeStyle=entityRelationEdgeStyle;fontSize=12;html=1;endArrow=ERoneToMany;entryX=1;entryY=0.5;entryDx=0;entryDy=0;exitX=0.25;exitY=1;exitDx=0;exitDy=0;" parent="1" source="2" target="8" edge="1">
                    <mxGeometry width="100" height="100" relative="1" as="geometry">
                        <mxPoint x="1170" y="300" as="sourcePoint"/>
                        <mxPoint x="940" y="120" as="targetPoint"/>
                    </mxGeometry>
                </mxCell>
                <mxCell id="75" value="" style="edgeStyle=entityRelationEdgeStyle;fontSize=12;html=1;endArrow=ERoneToMany;exitX=1;exitY=0.25;exitDx=0;exitDy=0;entryX=0;entryY=0.5;entryDx=0;entryDy=0;" parent="1" source="3" target="8" edge="1">
                    <mxGeometry width="100" height="100" relative="1" as="geometry">
                        <mxPoint x="920" y="510" as="sourcePoint"/>
                        <mxPoint x="890" y="380" as="targetPoint"/>
                    </mxGeometry>
                </mxCell>
                <mxCell id="76" value="" style="edgeStyle=entityRelationEdgeStyle;fontSize=12;html=1;endArrow=ERoneToMany;entryX=1;entryY=0.5;entryDx=0;entryDy=0;exitX=1;exitY=0.5;exitDx=0;exitDy=0;" parent="1" source="9" target="11" edge="1">
                    <mxGeometry width="100" height="100" relative="1" as="geometry">
                        <mxPoint x="300" y="-160" as="sourcePoint"/>
                        <mxPoint x="400" y="-260" as="targetPoint"/>
                    </mxGeometry>
                </mxCell>
                <mxCell id="77" value="" style="edgeStyle=entityRelationEdgeStyle;fontSize=12;html=1;endArrow=ERoneToMany;entryX=0;entryY=0.5;entryDx=0;entryDy=0;exitX=0.5;exitY=1;exitDx=0;exitDy=0;" parent="1" source="2" target="12" edge="1">
                    <mxGeometry width="100" height="100" relative="1" as="geometry">
                        <mxPoint x="1180" y="370" as="sourcePoint"/>
                        <mxPoint x="1400" y="390" as="targetPoint"/>
                    </mxGeometry>
                </mxCell>
                <mxCell id="78" value="" style="edgeStyle=entityRelationEdgeStyle;fontSize=12;html=1;endArrow=ERoneToMany;exitX=0;exitY=0.5;exitDx=0;exitDy=0;entryX=1;entryY=0.5;entryDx=0;entryDy=0;" parent="1" source="52" target="12" edge="1">
                    <mxGeometry width="100" height="100" relative="1" as="geometry">
                        <mxPoint x="1420" y="540" as="sourcePoint"/>
                        <mxPoint x="1520" y="440" as="targetPoint"/>
                    </mxGeometry>
                </mxCell>
                <mxCell id="81" value="" style="edgeStyle=entityRelationEdgeStyle;fontSize=12;html=1;endArrow=ERmandOne;startArrow=ERmandOne;entryX=0.25;entryY=1;entryDx=0;entryDy=0;exitX=0.5;exitY=0;exitDx=0;exitDy=0;" parent="1" source="5" target="53" edge="1">
                    <mxGeometry width="100" height="100" relative="1" as="geometry">
                        <mxPoint x="360" y="780" as="sourcePoint"/>
                        <mxPoint x="195" y="440" as="targetPoint"/>
                    </mxGeometry>
                </mxCell>
                <mxCell id="84" value="" style="edgeStyle=entityRelationEdgeStyle;fontSize=12;html=1;endArrow=ERmandOne;startArrow=ERmandOne;entryX=0.5;entryY=1;entryDx=0;entryDy=0;exitX=0.75;exitY=0;exitDx=0;exitDy=0;" parent="1" source="10" target="53" edge="1">
                    <mxGeometry width="100" height="100" relative="1" as="geometry">
                        <mxPoint x="730" y="590" as="sourcePoint"/>
                        <mxPoint x="830" y="490" as="targetPoint"/>
                    </mxGeometry>
                </mxCell>
                <mxCell id="85" value="" style="edgeStyle=entityRelationEdgeStyle;fontSize=12;html=1;endArrow=ERoneToMany;entryX=0;entryY=0.5;entryDx=0;entryDy=0;exitX=1;exitY=0.75;exitDx=0;exitDy=0;" parent="1" source="3" target="18" edge="1">
                    <mxGeometry width="100" height="100" relative="1" as="geometry">
                        <mxPoint x="920" y="610" as="sourcePoint"/>
                        <mxPoint x="1020" y="510" as="targetPoint"/>
                    </mxGeometry>
                </mxCell>
                <mxCell id="86" value="" style="edgeStyle=entityRelationEdgeStyle;fontSize=12;html=1;endArrow=ERoneToMany;entryX=0;entryY=0.75;entryDx=0;entryDy=0;exitX=1;exitY=0.5;exitDx=0;exitDy=0;" parent="1" source="19" target="2" edge="1">
                    <mxGeometry width="100" height="100" relative="1" as="geometry">
                        <mxPoint x="1120" y="790" as="sourcePoint"/>
                        <mxPoint x="1180" y="380" as="targetPoint"/>
                    </mxGeometry>
                </mxCell>
                <mxCell id="87" value="user_last_login" style="ellipse;whiteSpace=wrap;html=1;align=center;" parent="1" vertex="1">
                    <mxGeometry x="1510" y="430" width="130" height="40" as="geometry"/>
                </mxCell>
                <mxCell id="88" value="user_created_at" style="ellipse;whiteSpace=wrap;html=1;align=center;" parent="1" vertex="1">
                    <mxGeometry x="1360" y="400" width="130" height="40" as="geometry"/>
                </mxCell>
                <mxCell id="89" value="" style="endArrow=none;html=1;rounded=0;exitX=1;exitY=0.5;exitDx=0;exitDy=0;entryX=0.5;entryY=0;entryDx=0;entryDy=0;" parent="1" source="2" target="87" edge="1">
                    <mxGeometry relative="1" as="geometry">
                        <mxPoint x="1260" y="270" as="sourcePoint"/>
                        <mxPoint x="1720.0000000000005" y="460" as="targetPoint"/>
                    </mxGeometry>
                </mxCell>
                <mxCell id="90" value="" style="endArrow=none;html=1;rounded=0;exitX=1;exitY=0.5;exitDx=0;exitDy=0;entryX=0.5;entryY=0;entryDx=0;entryDy=0;" parent="1" source="2" target="88" edge="1">
                    <mxGeometry relative="1" as="geometry">
                        <mxPoint x="1260" y="270" as="sourcePoint"/>
                        <mxPoint x="1585" y="440" as="targetPoint"/>
                    </mxGeometry>
                </mxCell>
                <mxCell id="91" value="member_id" style="ellipse;whiteSpace=wrap;html=1;align=center;fontStyle=4;" parent="1" vertex="1">
                    <mxGeometry x="300" y="780" width="100" height="40" as="geometry"/>
                </mxCell>
                <mxCell id="92" value="&lt;span style=&quot;border-bottom: 1px dotted&quot;&gt;user_id&lt;/span&gt;" style="ellipse;whiteSpace=wrap;html=1;align=center;" parent="1" vertex="1">
                    <mxGeometry x="300" y="840" width="100" height="40" as="geometry"/>
                </mxCell>
                <mxCell id="93" value="member_status" style="ellipse;whiteSpace=wrap;html=1;align=center;" parent="1" vertex="1">
                    <mxGeometry x="295" y="895" width="100" height="40" as="geometry"/>
                </mxCell>
                <mxCell id="94" value="member_type" style="ellipse;whiteSpace=wrap;html=1;align=center;" parent="1" vertex="1">
                    <mxGeometry x="310" y="945" width="100" height="40" as="geometry"/>
                </mxCell>
                <mxCell id="95" value="member_since" style="ellipse;whiteSpace=wrap;html=1;align=center;" parent="1" vertex="1">
                    <mxGeometry x="325" y="995" width="100" height="40" as="geometry"/>
                </mxCell>
                <mxCell id="96" value="member_updated_at" style="ellipse;whiteSpace=wrap;html=1;align=center;" parent="1" vertex="1">
                    <mxGeometry x="450" y="970" width="150" height="40" as="geometry"/>
                </mxCell>
                <mxCell id="97" value="" style="endArrow=none;html=1;rounded=0;entryX=0.5;entryY=1;entryDx=0;entryDy=0;exitX=0.5;exitY=0;exitDx=0;exitDy=0;" parent="1" source="91" target="3" edge="1">
                    <mxGeometry relative="1" as="geometry">
                        <mxPoint x="650" y="520" as="sourcePoint"/>
                        <mxPoint x="810" y="520" as="targetPoint"/>
                    </mxGeometry>
                </mxCell>
                <mxCell id="98" value="" style="endArrow=none;html=1;rounded=0;entryX=0.5;entryY=1;entryDx=0;entryDy=0;exitX=1;exitY=0;exitDx=0;exitDy=0;" parent="1" source="92" target="3" edge="1">
                    <mxGeometry relative="1" as="geometry">
                        <mxPoint x="630" y="620" as="sourcePoint"/>
                        <mxPoint x="645" y="479.9999999999998" as="targetPoint"/>
                    </mxGeometry>
                </mxCell>
                <mxCell id="99" value="" style="endArrow=none;html=1;rounded=0;entryX=0.5;entryY=1;entryDx=0;entryDy=0;exitX=1;exitY=0;exitDx=0;exitDy=0;" parent="1" source="93" target="3" edge="1">
                    <mxGeometry relative="1" as="geometry">
                        <mxPoint x="695" y="670" as="sourcePoint"/>
                        <mxPoint x="645" y="480" as="targetPoint"/>
                    </mxGeometry>
                </mxCell>
                <mxCell id="100" value="" style="endArrow=none;html=1;rounded=0;entryX=0.5;entryY=1;entryDx=0;entryDy=0;exitX=1;exitY=0;exitDx=0;exitDy=0;" parent="1" source="94" target="3" edge="1">
                    <mxGeometry relative="1" as="geometry">
                        <mxPoint x="769.9999999999998" y="720" as="sourcePoint"/>
                        <mxPoint x="645" y="480" as="targetPoint"/>
                    </mxGeometry>
                </mxCell>
                <mxCell id="101" value="" style="endArrow=none;html=1;rounded=0;entryX=0.5;entryY=1;entryDx=0;entryDy=0;exitX=1;exitY=0;exitDx=0;exitDy=0;" parent="1" source="95" target="3" edge="1">
                    <mxGeometry relative="1" as="geometry">
                        <mxPoint x="880.0000000000002" y="770" as="sourcePoint"/>
                        <mxPoint x="645" y="480" as="targetPoint"/>
                    </mxGeometry>
                </mxCell>
                <mxCell id="102" value="" style="endArrow=none;html=1;rounded=0;entryX=0.5;entryY=1;entryDx=0;entryDy=0;exitX=0;exitY=0;exitDx=0;exitDy=0;" parent="1" source="96" target="3" edge="1">
                    <mxGeometry relative="1" as="geometry">
                        <mxPoint x="864.6446609406728" y="695.8578643762689" as="sourcePoint"/>
                        <mxPoint x="645" y="480" as="targetPoint"/>
                    </mxGeometry>
                </mxCell>
                <mxCell id="104" value="profile_id" style="ellipse;whiteSpace=wrap;html=1;align=center;fontStyle=4;" parent="1" vertex="1">
                    <mxGeometry x="325" y="1300" width="100" height="40" as="geometry"/>
                </mxCell>
                <mxCell id="105" value="&lt;span style=&quot;border-bottom: 1px dotted&quot;&gt;member_id&lt;/span&gt;" style="ellipse;whiteSpace=wrap;html=1;align=center;" parent="1" vertex="1">
                    <mxGeometry x="355" y="1350" width="100" height="40" as="geometry"/>
                </mxCell>
                <mxCell id="106" value="full_name" style="ellipse;whiteSpace=wrap;html=1;align=center;" parent="1" vertex="1">
                    <mxGeometry x="390" y="1400" width="100" height="40" as="geometry"/>
                </mxCell>
                <mxCell id="107" value="phone_number" style="ellipse;whiteSpace=wrap;html=1;align=center;" parent="1" vertex="1">
                    <mxGeometry x="425" y="1450" width="100" height="40" as="geometry"/>
                </mxCell>
                <mxCell id="108" value="address" style="ellipse;whiteSpace=wrap;html=1;align=center;" parent="1" vertex="1">
                    <mxGeometry x="505" y="1490" width="100" height="40" as="geometry"/>
                </mxCell>
                <mxCell id="109" value="profile_image" style="ellipse;whiteSpace=wrap;html=1;align=center;" parent="1" vertex="1">
                    <mxGeometry x="585" y="1530" width="100" height="40" as="geometry"/>
                </mxCell>
                <mxCell id="110" value="bio" style="ellipse;whiteSpace=wrap;html=1;align=center;" parent="1" vertex="1">
                    <mxGeometry x="625" y="1460" width="100" height="40" as="geometry"/>
                </mxCell>
                <mxCell id="111" value="created_at" style="ellipse;whiteSpace=wrap;html=1;align=center;" parent="1" vertex="1">
                    <mxGeometry x="670" y="1400" width="100" height="40" as="geometry"/>
                </mxCell>
                <mxCell id="112" value="updated_at" style="ellipse;whiteSpace=wrap;html=1;align=center;" parent="1" vertex="1">
                    <mxGeometry x="675" y="1340" width="100" height="40" as="geometry"/>
                </mxCell>
                <mxCell id="113" value="" style="endArrow=none;html=1;rounded=0;entryX=0.5;entryY=1;entryDx=0;entryDy=0;exitX=1;exitY=0;exitDx=0;exitDy=0;" parent="1" source="104" target="46" edge="1">
                    <mxGeometry relative="1" as="geometry">
                        <mxPoint x="535.3553390593274" y="1105.857864376269" as="sourcePoint"/>
                        <mxPoint x="580" y="1050" as="targetPoint"/>
                    </mxGeometry>
                </mxCell>
                <mxCell id="114" value="" style="endArrow=none;html=1;rounded=0;entryX=0.5;entryY=1;entryDx=0;entryDy=0;exitX=1;exitY=0;exitDx=0;exitDy=0;" parent="1" source="105" target="46" edge="1">
                    <mxGeometry relative="1" as="geometry">
                        <mxPoint x="545.2327913248512" y="1115.8090146052682" as="sourcePoint"/>
                        <mxPoint x="550" y="1050" as="targetPoint"/>
                    </mxGeometry>
                </mxCell>
                <mxCell id="115" value="" style="endArrow=none;html=1;rounded=0;entryX=0.5;entryY=1;entryDx=0;entryDy=0;exitX=1;exitY=0;exitDx=0;exitDy=0;" parent="1" source="106" target="46" edge="1">
                    <mxGeometry relative="1" as="geometry">
                        <mxPoint x="575.2327913248487" y="1165.8090146052696" as="sourcePoint"/>
                        <mxPoint x="550" y="1050" as="targetPoint"/>
                    </mxGeometry>
                </mxCell>
                <mxCell id="116" value="" style="endArrow=none;html=1;rounded=0;entryX=0.5;entryY=1;entryDx=0;entryDy=0;exitX=1;exitY=0;exitDx=0;exitDy=0;" parent="1" source="107" target="46" edge="1">
                    <mxGeometry relative="1" as="geometry">
                        <mxPoint x="610.2327913248512" y="1215.8090146052682" as="sourcePoint"/>
                        <mxPoint x="550" y="1050" as="targetPoint"/>
                    </mxGeometry>
                </mxCell>
                <mxCell id="117" value="" style="endArrow=none;html=1;rounded=0;entryX=0.5;entryY=1;entryDx=0;entryDy=0;exitX=0.5;exitY=0;exitDx=0;exitDy=0;" parent="1" source="108" target="46" edge="1">
                    <mxGeometry relative="1" as="geometry">
                        <mxPoint x="645.2327913248535" y="1265.8090146052673" as="sourcePoint"/>
                        <mxPoint x="550" y="1050" as="targetPoint"/>
                    </mxGeometry>
                </mxCell>
                <mxCell id="118" value="" style="endArrow=none;html=1;rounded=0;entryX=0.5;entryY=1;entryDx=0;entryDy=0;exitX=0.5;exitY=0;exitDx=0;exitDy=0;" parent="1" source="109" target="46" edge="1">
                    <mxGeometry relative="1" as="geometry">
                        <mxPoint x="684.7672086751465" y="1265.8090146052673" as="sourcePoint"/>
                        <mxPoint x="550" y="1050" as="targetPoint"/>
                    </mxGeometry>
                </mxCell>
                <mxCell id="119" value="" style="endArrow=none;html=1;rounded=0;entryX=0.5;entryY=1;entryDx=0;entryDy=0;exitX=0;exitY=0;exitDx=0;exitDy=0;" parent="1" source="110" target="46" edge="1">
                    <mxGeometry relative="1" as="geometry">
                        <mxPoint x="704.746110356034" y="1215.8174007179446" as="sourcePoint"/>
                        <mxPoint x="550" y="1050" as="targetPoint"/>
                    </mxGeometry>
                </mxCell>
                <mxCell id="120" value="" style="endArrow=none;html=1;rounded=0;entryX=0.5;entryY=1;entryDx=0;entryDy=0;exitX=0;exitY=0;exitDx=0;exitDy=0;" parent="1" source="111" target="46" edge="1">
                    <mxGeometry relative="1" as="geometry">
                        <mxPoint x="804.746110356037" y="1205.817400717946" as="sourcePoint"/>
                        <mxPoint x="550" y="1050" as="targetPoint"/>
                    </mxGeometry>
                </mxCell>
                <mxCell id="121" value="" style="endArrow=none;html=1;rounded=0;entryX=0.5;entryY=1;entryDx=0;entryDy=0;exitX=0;exitY=0.5;exitDx=0;exitDy=0;" parent="1" source="112" target="46" edge="1">
                    <mxGeometry relative="1" as="geometry">
                        <mxPoint x="854.7461103560311" y="1155.8174007179437" as="sourcePoint"/>
                        <mxPoint x="550" y="1050" as="targetPoint"/>
                    </mxGeometry>
                </mxCell>
                <mxCell id="122" value="profile_id" style="ellipse;whiteSpace=wrap;html=1;align=center;fontStyle=4;" parent="1" vertex="1">
                    <mxGeometry x="870" y="-180" width="100" height="40" as="geometry"/>
                </mxCell>
                <mxCell id="123" value="&lt;span style=&quot;border-bottom: 1px dotted&quot;&gt;user_id&lt;/span&gt;" style="ellipse;whiteSpace=wrap;html=1;align=center;" parent="1" vertex="1">
                    <mxGeometry x="760" y="-180" width="100" height="40" as="geometry"/>
                </mxCell>
                <mxCell id="124" value="full_name" style="ellipse;whiteSpace=wrap;html=1;align=center;" parent="1" vertex="1">
                    <mxGeometry x="670" y="-150" width="100" height="40" as="geometry"/>
                </mxCell>
                <mxCell id="125" value="phone_number" style="ellipse;whiteSpace=wrap;html=1;align=center;" parent="1" vertex="1">
                    <mxGeometry x="590" y="-110" width="100" height="40" as="geometry"/>
                </mxCell>
                <mxCell id="126" value="address" style="ellipse;whiteSpace=wrap;html=1;align=center;" parent="1" vertex="1">
                    <mxGeometry x="640" y="-70" width="100" height="40" as="geometry"/>
                </mxCell>
                <mxCell id="127" value="created_at" style="ellipse;whiteSpace=wrap;html=1;align=center;" parent="1" vertex="1">
                    <mxGeometry x="825" y="-50" width="100" height="40" as="geometry"/>
                </mxCell>
                <mxCell id="128" value="updated_at" style="ellipse;whiteSpace=wrap;html=1;align=center;" parent="1" vertex="1">
                    <mxGeometry x="920" y="-70" width="100" height="40" as="geometry"/>
                </mxCell>
                <mxCell id="129" value="dietary_preferences" style="ellipse;whiteSpace=wrap;html=1;align=center;" parent="1" vertex="1">
                    <mxGeometry x="680" y="-30" width="140" height="40" as="geometry"/>
                </mxCell>
                <mxCell id="130" value="" style="endArrow=none;html=1;rounded=0;entryX=0;entryY=0.5;entryDx=0;entryDy=0;exitX=1;exitY=1;exitDx=0;exitDy=0;" parent="1" source="122" edge="1">
                    <mxGeometry relative="1" as="geometry">
                        <mxPoint x="840" as="sourcePoint"/>
                        <mxPoint x="990" y="-119.99999999999977" as="targetPoint"/>
                    </mxGeometry>
                </mxCell>
                <mxCell id="131" value="" style="endArrow=none;html=1;rounded=0;entryX=0;entryY=0.5;entryDx=0;entryDy=0;exitX=1;exitY=1;exitDx=0;exitDy=0;" parent="1" source="123" edge="1">
                    <mxGeometry relative="1" as="geometry">
                        <mxPoint x="915.3553390593277" y="-155.85786437626916" as="sourcePoint"/>
                        <mxPoint x="990" y="-119.99999999999977" as="targetPoint"/>
                    </mxGeometry>
                </mxCell>
                <mxCell id="132" value="" style="endArrow=none;html=1;rounded=0;entryX=0;entryY=0.5;entryDx=0;entryDy=0;exitX=1;exitY=1;exitDx=0;exitDy=0;" parent="1" source="124" edge="1">
                    <mxGeometry relative="1" as="geometry">
                        <mxPoint x="815.253889643963" y="-135.81740071794616" as="sourcePoint"/>
                        <mxPoint x="990" y="-119.99999999999977" as="targetPoint"/>
                    </mxGeometry>
                </mxCell>
                <mxCell id="133" value="" style="endArrow=none;html=1;rounded=0;entryX=0;entryY=0.5;entryDx=0;entryDy=0;exitX=1;exitY=0.5;exitDx=0;exitDy=0;" parent="1" source="125" edge="1">
                    <mxGeometry relative="1" as="geometry">
                        <mxPoint x="730" y="-120" as="sourcePoint"/>
                        <mxPoint x="990" y="-119.99999999999977" as="targetPoint"/>
                    </mxGeometry>
                </mxCell>
                <mxCell id="134" value="" style="endArrow=none;html=1;rounded=0;entryX=0;entryY=0.5;entryDx=0;entryDy=0;exitX=1;exitY=0;exitDx=0;exitDy=0;" parent="1" source="126" edge="1">
                    <mxGeometry relative="1" as="geometry">
                        <mxPoint x="655" y="-80" as="sourcePoint"/>
                        <mxPoint x="990" y="-119.99999999999977" as="targetPoint"/>
                    </mxGeometry>
                </mxCell>
                <mxCell id="135" value="" style="endArrow=none;html=1;rounded=0;entryX=0;entryY=0.5;entryDx=0;entryDy=0;exitX=0.5;exitY=0;exitDx=0;exitDy=0;" parent="1" source="129" edge="1">
                    <mxGeometry relative="1" as="geometry">
                        <mxPoint x="655.3553390593274" y="-44.142135623731065" as="sourcePoint"/>
                        <mxPoint x="990" y="-119.99999999999977" as="targetPoint"/>
                    </mxGeometry>
                </mxCell>
                <mxCell id="136" value="" style="endArrow=none;html=1;rounded=0;entryX=0;entryY=0.5;entryDx=0;entryDy=0;exitX=0.5;exitY=0;exitDx=0;exitDy=0;" parent="1" source="127" edge="1">
                    <mxGeometry relative="1" as="geometry">
                        <mxPoint x="700" y="-10" as="sourcePoint"/>
                        <mxPoint x="990" y="-119.99999999999977" as="targetPoint"/>
                    </mxGeometry>
                </mxCell>
                <mxCell id="137" value="" style="endArrow=none;html=1;rounded=0;entryX=0;entryY=0.5;entryDx=0;entryDy=0;exitX=0.5;exitY=0;exitDx=0;exitDy=0;" parent="1" source="128" edge="1">
                    <mxGeometry relative="1" as="geometry">
                        <mxPoint x="840" y="-20" as="sourcePoint"/>
                        <mxPoint x="990" y="-119.99999999999977" as="targetPoint"/>
                    </mxGeometry>
                </mxCell>
                <mxCell id="138" value="dish_id" style="ellipse;whiteSpace=wrap;html=1;align=center;fontStyle=4;" parent="1" vertex="1">
                    <mxGeometry x="80" y="-60" width="100" height="40" as="geometry"/>
                </mxCell>
                <mxCell id="139" value="&lt;span style=&quot;border-bottom: 1px dotted&quot;&gt;member_id&lt;/span&gt;" style="ellipse;whiteSpace=wrap;html=1;align=center;" parent="1" vertex="1">
                    <mxGeometry x="100" y="-110" width="100" height="40" as="geometry"/>
                </mxCell>
                <mxCell id="140" value="mealTypes" style="ellipse;whiteSpace=wrap;html=1;align=center;" parent="1" vertex="1">
                    <mxGeometry x="170" y="-260" width="100" height="40" as="geometry"/>
                </mxCell>
                <mxCell id="141" value="" style="endArrow=none;html=1;rounded=0;entryX=0.5;entryY=0;entryDx=0;entryDy=0;exitX=1;exitY=1;exitDx=0;exitDy=0;" parent="1" source="138" target="4" edge="1">
                    <mxGeometry relative="1" as="geometry">
                        <mxPoint x="237.50000000000227" y="-60" as="sourcePoint"/>
                        <mxPoint x="537.5" y="-90" as="targetPoint"/>
                    </mxGeometry>
                </mxCell>
                <mxCell id="142" value="dish_name" style="ellipse;whiteSpace=wrap;html=1;align=center;" parent="1" vertex="1">
                    <mxGeometry x="145" y="-210" width="100" height="40" as="geometry"/>
                </mxCell>
                <mxCell id="144" value="dish_description" style="ellipse;whiteSpace=wrap;html=1;align=center;" parent="1" vertex="1">
                    <mxGeometry x="200" y="-310" width="100" height="40" as="geometry"/>
                </mxCell>
                <mxCell id="145" value="image_url" style="ellipse;whiteSpace=wrap;html=1;align=center;" parent="1" vertex="1">
                    <mxGeometry x="230" y="-370" width="100" height="40" as="geometry"/>
                </mxCell>
                <mxCell id="146" value="dish_price" style="ellipse;whiteSpace=wrap;html=1;align=center;" parent="1" vertex="1">
                    <mxGeometry x="290" y="-420" width="100" height="40" as="geometry"/>
                </mxCell>
                <mxCell id="147" value="status" style="ellipse;whiteSpace=wrap;html=1;align=center;" parent="1" vertex="1">
                    <mxGeometry x="345" y="-380" width="100" height="40" as="geometry"/>
                </mxCell>
                <mxCell id="148" value="is_active" style="ellipse;whiteSpace=wrap;html=1;align=center;" parent="1" vertex="1">
                    <mxGeometry x="375" y="-330" width="100" height="40" as="geometry"/>
                </mxCell>
                <mxCell id="149" value="created_at" style="ellipse;whiteSpace=wrap;html=1;align=center;" parent="1" vertex="1">
                    <mxGeometry x="410" y="-280" width="100" height="40" as="geometry"/>
                </mxCell>
                <mxCell id="150" value="updated_at" style="ellipse;whiteSpace=wrap;html=1;align=center;" parent="1" vertex="1">
                    <mxGeometry x="425" y="-230" width="100" height="40" as="geometry"/>
                </mxCell>
                <mxCell id="151" value="" style="endArrow=none;html=1;rounded=0;entryX=0.5;entryY=0;entryDx=0;entryDy=0;exitX=1;exitY=1;exitDx=0;exitDy=0;" parent="1" source="139" target="4" edge="1">
                    <mxGeometry relative="1" as="geometry">
                        <mxPoint x="175.35533905932493" y="-15.857864376270072" as="sourcePoint"/>
                        <mxPoint x="260" y="180" as="targetPoint"/>
                    </mxGeometry>
                </mxCell>
                <mxCell id="152" value="" style="endArrow=none;html=1;rounded=0;entryX=0.5;entryY=0;entryDx=0;entryDy=0;exitX=1;exitY=1;exitDx=0;exitDy=0;" parent="1" target="4" edge="1">
                    <mxGeometry relative="1" as="geometry">
                        <mxPoint x="204.9558815961832" y="-125.69986661974326" as="sourcePoint"/>
                        <mxPoint x="260" y="180" as="targetPoint"/>
                    </mxGeometry>
                </mxCell>
                <mxCell id="153" value="" style="endArrow=none;html=1;rounded=0;entryX=0.5;entryY=0;entryDx=0;entryDy=0;exitX=1;exitY=1;exitDx=0;exitDy=0;" parent="1" source="142" target="4" edge="1">
                    <mxGeometry relative="1" as="geometry">
                        <mxPoint x="215.25939565572241" y="-115.81959087758992" as="sourcePoint"/>
                        <mxPoint x="260" y="180" as="targetPoint"/>
                    </mxGeometry>
                </mxCell>
                <mxCell id="154" value="" style="endArrow=none;html=1;rounded=0;entryX=0.5;entryY=0;entryDx=0;entryDy=0;exitX=1;exitY=1;exitDx=0;exitDy=0;" parent="1" source="140" target="4" edge="1">
                    <mxGeometry relative="1" as="geometry">
                        <mxPoint x="240.25939565572241" y="-165.81959087758992" as="sourcePoint"/>
                        <mxPoint x="260" y="180" as="targetPoint"/>
                    </mxGeometry>
                </mxCell>
                <mxCell id="155" value="" style="endArrow=none;html=1;rounded=0;entryX=0.5;entryY=0;entryDx=0;entryDy=0;exitX=1;exitY=1;exitDx=0;exitDy=0;" parent="1" source="144" target="4" edge="1">
                    <mxGeometry relative="1" as="geometry">
                        <mxPoint x="275.2593956557213" y="-225.81959087759037" as="sourcePoint"/>
                        <mxPoint x="260" y="180" as="targetPoint"/>
                    </mxGeometry>
                </mxCell>
                <mxCell id="156" value="" style="endArrow=none;html=1;rounded=0;entryX=0.5;entryY=0;entryDx=0;entryDy=0;exitX=1;exitY=1;exitDx=0;exitDy=0;" parent="1" source="145" target="4" edge="1">
                    <mxGeometry relative="1" as="geometry">
                        <mxPoint x="295.35533905932857" y="-265.8578643762685" as="sourcePoint"/>
                        <mxPoint x="259.9999999999999" y="179.99999999999977" as="targetPoint"/>
                    </mxGeometry>
                </mxCell>
                <mxCell id="157" value="" style="endArrow=none;html=1;rounded=0;entryX=0.5;entryY=0;entryDx=0;entryDy=0;exitX=0.5;exitY=1;exitDx=0;exitDy=0;" parent="1" source="146" target="4" edge="1">
                    <mxGeometry relative="1" as="geometry">
                        <mxPoint x="325.35533905932743" y="-325.85786437626894" as="sourcePoint"/>
                        <mxPoint x="259.9999999999999" y="179.99999999999977" as="targetPoint"/>
                    </mxGeometry>
                </mxCell>
                <mxCell id="158" value="" style="endArrow=none;html=1;rounded=0;entryX=0.5;entryY=0;entryDx=0;entryDy=0;exitX=0;exitY=1;exitDx=0;exitDy=0;" parent="1" source="147" target="4" edge="1">
                    <mxGeometry relative="1" as="geometry">
                        <mxPoint x="350.0000000000001" y="-370" as="sourcePoint"/>
                        <mxPoint x="259.9999999999999" y="179.99999999999977" as="targetPoint"/>
                    </mxGeometry>
                </mxCell>
                <mxCell id="159" value="" style="endArrow=none;html=1;rounded=0;entryX=0.5;entryY=0;entryDx=0;entryDy=0;exitX=0;exitY=1;exitDx=0;exitDy=0;" parent="1" source="148" target="4" edge="1">
                    <mxGeometry relative="1" as="geometry">
                        <mxPoint x="399.6446609406727" y="-335.85786437626894" as="sourcePoint"/>
                        <mxPoint x="259.9999999999999" y="179.99999999999977" as="targetPoint"/>
                    </mxGeometry>
                </mxCell>
                <mxCell id="160" value="" style="endArrow=none;html=1;rounded=0;entryX=0.5;entryY=0;entryDx=0;entryDy=0;exitX=0;exitY=1;exitDx=0;exitDy=0;" parent="1" source="149" target="4" edge="1">
                    <mxGeometry relative="1" as="geometry">
                        <mxPoint x="434.6446609406727" y="-285.85786437626916" as="sourcePoint"/>
                        <mxPoint x="259.9999999999999" y="179.99999999999977" as="targetPoint"/>
                    </mxGeometry>
                </mxCell>
                <mxCell id="161" value="" style="endArrow=none;html=1;rounded=0;entryX=0.5;entryY=0;entryDx=0;entryDy=0;exitX=0;exitY=1;exitDx=0;exitDy=0;" parent="1" source="150" target="4" edge="1">
                    <mxGeometry relative="1" as="geometry">
                        <mxPoint x="459.64466094067257" y="-235.85786437626916" as="sourcePoint"/>
                        <mxPoint x="259.9999999999999" y="179.99999999999977" as="targetPoint"/>
                    </mxGeometry>
                </mxCell>
                <mxCell id="163" value="category_id" style="ellipse;whiteSpace=wrap;html=1;align=center;fontStyle=4;" parent="1" vertex="1">
                    <mxGeometry x="710" y="-380" width="100" height="40" as="geometry"/>
                </mxCell>
                <mxCell id="164" value="name" style="ellipse;whiteSpace=wrap;html=1;align=center;" parent="1" vertex="1">
                    <mxGeometry x="725" y="-320" width="100" height="40" as="geometry"/>
                </mxCell>
                <mxCell id="165" value="description" style="ellipse;whiteSpace=wrap;html=1;align=center;" parent="1" vertex="1">
                    <mxGeometry x="747.5" y="-270" width="100" height="40" as="geometry"/>
                </mxCell>
                <mxCell id="166" value="image_url" style="ellipse;whiteSpace=wrap;html=1;align=center;" parent="1" vertex="1">
                    <mxGeometry x="810" y="-230" width="100" height="40" as="geometry"/>
                </mxCell>
                <mxCell id="167" value="is_active" style="ellipse;whiteSpace=wrap;html=1;align=center;" parent="1" vertex="1">
                    <mxGeometry x="870" y="-270" width="100" height="40" as="geometry"/>
                </mxCell>
                <mxCell id="168" value="created_at" style="ellipse;whiteSpace=wrap;html=1;align=center;" parent="1" vertex="1">
                    <mxGeometry x="900" y="-320" width="100" height="40" as="geometry"/>
                </mxCell>
                <mxCell id="169" value="updated_at" style="ellipse;whiteSpace=wrap;html=1;align=center;" parent="1" vertex="1">
                    <mxGeometry x="910" y="-370" width="100" height="40" as="geometry"/>
                </mxCell>
                <mxCell id="170" value="" style="endArrow=none;html=1;rounded=0;entryX=1;entryY=0;entryDx=0;entryDy=0;exitX=0.5;exitY=1;exitDx=0;exitDy=0;" parent="1" source="45" target="163" edge="1">
                    <mxGeometry relative="1" as="geometry">
                        <mxPoint x="825.3553390593274" y="-395.85786437626894" as="sourcePoint"/>
                        <mxPoint x="970" y="-370" as="targetPoint"/>
                    </mxGeometry>
                </mxCell>
                <mxCell id="171" value="" style="endArrow=none;html=1;rounded=0;entryX=1;entryY=0;entryDx=0;entryDy=0;exitX=0.5;exitY=1;exitDx=0;exitDy=0;" parent="1" source="45" target="164" edge="1">
                    <mxGeometry relative="1" as="geometry">
                        <mxPoint x="840" y="-420" as="sourcePoint"/>
                        <mxPoint x="805.3553390593277" y="-364.14213562373106" as="targetPoint"/>
                    </mxGeometry>
                </mxCell>
                <mxCell id="172" value="" style="endArrow=none;html=1;rounded=0;entryX=1;entryY=0;entryDx=0;entryDy=0;exitX=0.5;exitY=1;exitDx=0;exitDy=0;" parent="1" source="45" target="165" edge="1">
                    <mxGeometry relative="1" as="geometry">
                        <mxPoint x="840" y="-420" as="sourcePoint"/>
                        <mxPoint x="820.3553390593277" y="-304.14213562373106" as="targetPoint"/>
                    </mxGeometry>
                </mxCell>
                <mxCell id="173" value="" style="endArrow=none;html=1;rounded=0;entryX=0.5;entryY=0;entryDx=0;entryDy=0;exitX=0.5;exitY=1;exitDx=0;exitDy=0;" parent="1" source="45" target="166" edge="1">
                    <mxGeometry relative="1" as="geometry">
                        <mxPoint x="840" y="-420" as="sourcePoint"/>
                        <mxPoint x="842.8553390593274" y="-254.14213562373106" as="targetPoint"/>
                    </mxGeometry>
                </mxCell>
                <mxCell id="174" value="" style="endArrow=none;html=1;rounded=0;entryX=0;entryY=0;entryDx=0;entryDy=0;exitX=0.5;exitY=1;exitDx=0;exitDy=0;" parent="1" source="45" target="167" edge="1">
                    <mxGeometry relative="1" as="geometry">
                        <mxPoint x="840" y="-420" as="sourcePoint"/>
                        <mxPoint x="870" y="-220" as="targetPoint"/>
                    </mxGeometry>
                </mxCell>
                <mxCell id="175" value="" style="endArrow=none;html=1;rounded=0;entryX=0;entryY=0;entryDx=0;entryDy=0;exitX=0.5;exitY=1;exitDx=0;exitDy=0;" parent="1" source="45" target="168" edge="1">
                    <mxGeometry relative="1" as="geometry">
                        <mxPoint x="840" y="-420" as="sourcePoint"/>
                        <mxPoint x="894.6446609406723" y="-254.14213562373106" as="targetPoint"/>
                    </mxGeometry>
                </mxCell>
                <mxCell id="176" value="" style="endArrow=none;html=1;rounded=0;entryX=0;entryY=0;entryDx=0;entryDy=0;exitX=0.5;exitY=1;exitDx=0;exitDy=0;" parent="1" source="45" target="169" edge="1">
                    <mxGeometry relative="1" as="geometry">
                        <mxPoint x="840" y="-420.0000000000001" as="sourcePoint"/>
                        <mxPoint x="924.7170360238433" y="-304.17102651501386" as="targetPoint"/>
                    </mxGeometry>
                </mxCell>
                <mxCell id="177" value="ingredient_id" style="ellipse;whiteSpace=wrap;html=1;align=center;fontStyle=4;" parent="1" vertex="1">
                    <mxGeometry x="-160" y="-50" width="100" height="40" as="geometry"/>
                </mxCell>
                <mxCell id="179" value="" style="endArrow=none;html=1;rounded=0;exitX=1;exitY=1;exitDx=0;exitDy=0;entryX=0;entryY=0.5;entryDx=0;entryDy=0;" parent="1" source="177" target="9" edge="1">
                    <mxGeometry relative="1" as="geometry">
                        <mxPoint x="-230.00221847964616" y="29.996762742270477" as="sourcePoint"/>
                        <mxPoint x="-160" y="260" as="targetPoint"/>
                    </mxGeometry>
                </mxCell>
                <mxCell id="180" value="name" style="ellipse;whiteSpace=wrap;html=1;align=center;" parent="1" vertex="1">
                    <mxGeometry x="-260" y="-20" width="100" height="40" as="geometry"/>
                </mxCell>
                <mxCell id="181" value="description" style="ellipse;whiteSpace=wrap;html=1;align=center;" parent="1" vertex="1">
                    <mxGeometry x="-360" y="10" width="100" height="40" as="geometry"/>
                </mxCell>
                <mxCell id="182" value="is_active" style="ellipse;whiteSpace=wrap;html=1;align=center;" parent="1" vertex="1">
                    <mxGeometry x="-320" y="50" width="100" height="40" as="geometry"/>
                </mxCell>
                <mxCell id="183" value="created_at" style="ellipse;whiteSpace=wrap;html=1;align=center;" parent="1" vertex="1">
                    <mxGeometry x="-250" y="90" width="100" height="40" as="geometry"/>
                </mxCell>
                <mxCell id="184" value="updated_at" style="ellipse;whiteSpace=wrap;html=1;align=center;" parent="1" vertex="1">
                    <mxGeometry x="-140" y="80" width="100" height="40" as="geometry"/>
                </mxCell>
                <mxCell id="185" value="" style="endArrow=none;html=1;rounded=0;exitX=1;exitY=1;exitDx=0;exitDy=0;entryX=0;entryY=0.5;entryDx=0;entryDy=0;" parent="1" source="180" target="9" edge="1">
                    <mxGeometry relative="1" as="geometry">
                        <mxPoint x="-64.83221847966092" y="-5.783237257735436" as="sourcePoint"/>
                        <mxPoint x="10" y="29.999999999999773" as="targetPoint"/>
                    </mxGeometry>
                </mxCell>
                <mxCell id="186" value="" style="endArrow=none;html=1;rounded=0;exitX=1;exitY=1;exitDx=0;exitDy=0;entryX=0;entryY=0.5;entryDx=0;entryDy=0;" parent="1" source="181" target="9" edge="1">
                    <mxGeometry relative="1" as="geometry">
                        <mxPoint x="-164.77633681549742" y="24.194610537038216" as="sourcePoint"/>
                        <mxPoint x="10" y="30" as="targetPoint"/>
                    </mxGeometry>
                </mxCell>
                <mxCell id="187" value="" style="endArrow=none;html=1;rounded=0;exitX=1;exitY=0;exitDx=0;exitDy=0;entryX=0;entryY=0.5;entryDx=0;entryDy=0;" parent="1" source="182" target="9" edge="1">
                    <mxGeometry relative="1" as="geometry">
                        <mxPoint x="-264.77633681549014" y="54.19461053704117" as="sourcePoint"/>
                        <mxPoint x="10" y="30" as="targetPoint"/>
                    </mxGeometry>
                </mxCell>
                <mxCell id="188" value="" style="endArrow=none;html=1;rounded=0;exitX=1;exitY=0;exitDx=0;exitDy=0;entryX=0;entryY=0.5;entryDx=0;entryDy=0;" parent="1" source="183" target="9" edge="1">
                    <mxGeometry relative="1" as="geometry">
                        <mxPoint x="-314.77633681549196" y="85.80538946295928" as="sourcePoint"/>
                        <mxPoint x="10" y="30" as="targetPoint"/>
                    </mxGeometry>
                </mxCell>
                <mxCell id="189" value="" style="endArrow=none;html=1;rounded=0;exitX=1;exitY=0;exitDx=0;exitDy=0;entryX=0;entryY=0.5;entryDx=0;entryDy=0;" parent="1" source="184" target="9" edge="1">
                    <mxGeometry relative="1" as="geometry">
                        <mxPoint x="-284.7763368154938" y="135.8053894629602" as="sourcePoint"/>
                        <mxPoint x="10" y="30" as="targetPoint"/>
                    </mxGeometry>
                </mxCell>
                <mxCell id="191" value="&lt;span style=&quot;border-bottom: 1px dotted&quot;&gt;dish_id&lt;/span&gt;" style="ellipse;whiteSpace=wrap;html=1;align=center;" parent="1" vertex="1">
                    <mxGeometry x="-190" y="150" width="100" height="40" as="geometry"/>
                </mxCell>
                <mxCell id="192" value="&lt;span style=&quot;border-bottom: 1px dotted&quot;&gt;ingredients_id&lt;/span&gt;" style="ellipse;whiteSpace=wrap;html=1;align=center;" parent="1" vertex="1">
                    <mxGeometry x="-300" y="190" width="100" height="40" as="geometry"/>
                </mxCell>
                <mxCell id="194" value="quantity" style="ellipse;whiteSpace=wrap;html=1;align=center;" parent="1" vertex="1">
                    <mxGeometry x="-290" y="240" width="100" height="40" as="geometry"/>
                </mxCell>
                <mxCell id="195" value="created_at" style="ellipse;whiteSpace=wrap;html=1;align=center;" parent="1" vertex="1">
                    <mxGeometry x="-220" y="280" width="100" height="40" as="geometry"/>
                </mxCell>
                <mxCell id="196" value="updated_at" style="ellipse;whiteSpace=wrap;html=1;align=center;" parent="1" vertex="1">
                    <mxGeometry x="-130" y="250" width="100" height="40" as="geometry"/>
                </mxCell>
                <mxCell id="197" value="" style="endArrow=none;html=1;rounded=0;exitX=1;exitY=1;exitDx=0;exitDy=0;entryX=0;entryY=0.5;entryDx=0;entryDy=0;" parent="1" source="191" target="11" edge="1">
                    <mxGeometry relative="1" as="geometry">
                        <mxPoint x="-150.0022184796532" y="272.8932372577318" as="sourcePoint"/>
                        <mxPoint x="-95.17" y="207.1099999999998" as="targetPoint"/>
                    </mxGeometry>
                </mxCell>
                <mxCell id="198" value="" style="endArrow=none;html=1;rounded=0;exitX=1;exitY=0.5;exitDx=0;exitDy=0;entryX=0;entryY=0.5;entryDx=0;entryDy=0;" parent="1" source="192" target="11" edge="1">
                    <mxGeometry relative="1" as="geometry">
                        <mxPoint x="-160.0022184796607" y="219.99676274226456" as="sourcePoint"/>
                        <mxPoint x="-85.17" y="225.78" as="targetPoint"/>
                    </mxGeometry>
                </mxCell>
                <mxCell id="199" value="" style="endArrow=none;html=1;rounded=0;exitX=1;exitY=0.5;exitDx=0;exitDy=0;entryX=0;entryY=0.5;entryDx=0;entryDy=0;" parent="1" source="194" target="11" edge="1">
                    <mxGeometry relative="1" as="geometry">
                        <mxPoint x="-190" y="220" as="sourcePoint"/>
                        <mxPoint x="-20" y="200" as="targetPoint"/>
                    </mxGeometry>
                </mxCell>
                <mxCell id="200" value="" style="endArrow=none;html=1;rounded=0;exitX=0.5;exitY=0;exitDx=0;exitDy=0;entryX=0;entryY=0.5;entryDx=0;entryDy=0;" parent="1" source="195" target="11" edge="1">
                    <mxGeometry relative="1" as="geometry">
                        <mxPoint x="-220" y="270" as="sourcePoint"/>
                        <mxPoint x="-20" y="200" as="targetPoint"/>
                    </mxGeometry>
                </mxCell>
                <mxCell id="201" value="" style="endArrow=none;html=1;rounded=0;exitX=0;exitY=0;exitDx=0;exitDy=0;entryX=0;entryY=0.5;entryDx=0;entryDy=0;" parent="1" source="196" target="11" edge="1">
                    <mxGeometry relative="1" as="geometry">
                        <mxPoint x="-204.83221847964978" y="305.78323725773043" as="sourcePoint"/>
                        <mxPoint x="-20" y="200" as="targetPoint"/>
                    </mxGeometry>
                </mxCell>
                <mxCell id="202" value="order_id" style="ellipse;whiteSpace=wrap;html=1;align=center;fontStyle=4;" parent="1" vertex="1">
                    <mxGeometry x="-80" y="890" width="100" height="40" as="geometry"/>
                </mxCell>
                <mxCell id="204" value="&lt;span style=&quot;border-bottom: 1px dotted&quot;&gt;user_id&lt;/span&gt;" style="ellipse;whiteSpace=wrap;html=1;align=center;" parent="1" vertex="1">
                    <mxGeometry x="-60" y="940" width="100" height="40" as="geometry"/>
                </mxCell>
                <mxCell id="205" value="order_date" style="ellipse;whiteSpace=wrap;html=1;align=center;" parent="1" vertex="1">
                    <mxGeometry x="-40" y="1000" width="100" height="40" as="geometry"/>
                </mxCell>
                <mxCell id="206" value="total_amount" style="ellipse;whiteSpace=wrap;html=1;align=center;" parent="1" vertex="1">
                    <mxGeometry x="-20" y="1050" width="100" height="40" as="geometry"/>
                </mxCell>
                <mxCell id="207" value="status" style="ellipse;whiteSpace=wrap;html=1;align=center;" parent="1" vertex="1">
                    <mxGeometry x="60" y="1100" width="100" height="40" as="geometry"/>
                </mxCell>
                <mxCell id="208" value="payment_status" style="ellipse;whiteSpace=wrap;html=1;align=center;" parent="1" vertex="1">
                    <mxGeometry x="135" y="1050" width="100" height="40" as="geometry"/>
                </mxCell>
                <mxCell id="209" value="delivery_address" style="ellipse;whiteSpace=wrap;html=1;align=center;" parent="1" vertex="1">
                    <mxGeometry x="150" y="990" width="100" height="40" as="geometry"/>
                </mxCell>
                <mxCell id="210" value="created_at" style="ellipse;whiteSpace=wrap;html=1;align=center;" parent="1" vertex="1">
                    <mxGeometry x="160" y="930" width="100" height="40" as="geometry"/>
                </mxCell>
                <mxCell id="211" value="updated_at" style="ellipse;whiteSpace=wrap;html=1;align=center;" parent="1" vertex="1">
                    <mxGeometry x="160" y="880" width="100" height="40" as="geometry"/>
                </mxCell>
                <mxCell id="212" value="" style="endArrow=none;html=1;rounded=0;exitX=1;exitY=0;exitDx=0;exitDy=0;entryX=0.5;entryY=1;entryDx=0;entryDy=0;" parent="1" source="202" target="5" edge="1">
                    <mxGeometry relative="1" as="geometry">
                        <mxPoint x="285.35533905933744" y="465.85786437626484" as="sourcePoint"/>
                        <mxPoint x="300" y="410" as="targetPoint"/>
                    </mxGeometry>
                </mxCell>
                <mxCell id="213" value="" style="endArrow=none;html=1;rounded=0;exitX=1;exitY=0;exitDx=0;exitDy=0;entryX=0.5;entryY=1;entryDx=0;entryDy=0;" parent="1" source="204" target="5" edge="1">
                    <mxGeometry relative="1" as="geometry">
                        <mxPoint x="225.25939565572344" y="455.81959087758923" as="sourcePoint"/>
                        <mxPoint x="305" y="410" as="targetPoint"/>
                    </mxGeometry>
                </mxCell>
                <mxCell id="214" value="" style="endArrow=none;html=1;rounded=0;exitX=1;exitY=0;exitDx=0;exitDy=0;entryX=0.5;entryY=1;entryDx=0;entryDy=0;" parent="1" source="205" target="5" edge="1">
                    <mxGeometry relative="1" as="geometry">
                        <mxPoint x="245.25939565572344" y="505.81959087758923" as="sourcePoint"/>
                        <mxPoint x="305" y="410" as="targetPoint"/>
                    </mxGeometry>
                </mxCell>
                <mxCell id="215" value="" style="endArrow=none;html=1;rounded=0;exitX=1;exitY=0;exitDx=0;exitDy=0;entryX=0.5;entryY=1;entryDx=0;entryDy=0;" parent="1" source="206" target="5" edge="1">
                    <mxGeometry relative="1" as="geometry">
                        <mxPoint x="265.25939565572344" y="565.8195908775895" as="sourcePoint"/>
                        <mxPoint x="305" y="410" as="targetPoint"/>
                    </mxGeometry>
                </mxCell>
                <mxCell id="216" value="" style="endArrow=none;html=1;rounded=0;exitX=0.5;exitY=0;exitDx=0;exitDy=0;entryX=0.5;entryY=1;entryDx=0;entryDy=0;" parent="1" source="207" target="5" edge="1">
                    <mxGeometry relative="1" as="geometry">
                        <mxPoint x="285.240735943617" y="615.812171243479" as="sourcePoint"/>
                        <mxPoint x="305" y="410" as="targetPoint"/>
                    </mxGeometry>
                </mxCell>
                <mxCell id="217" value="" style="endArrow=none;html=1;rounded=0;exitX=0;exitY=0;exitDx=0;exitDy=0;entryX=0.5;entryY=1;entryDx=0;entryDy=0;" parent="1" source="208" target="5" edge="1">
                    <mxGeometry relative="1" as="geometry">
                        <mxPoint x="330" y="660" as="sourcePoint"/>
                        <mxPoint x="305" y="410" as="targetPoint"/>
                    </mxGeometry>
                </mxCell>
                <mxCell id="218" value="" style="endArrow=none;html=1;rounded=0;exitX=0;exitY=0;exitDx=0;exitDy=0;entryX=0.5;entryY=1;entryDx=0;entryDy=0;" parent="1" source="209" target="5" edge="1">
                    <mxGeometry relative="1" as="geometry">
                        <mxPoint x="369.75926405638893" y="615.8121712434813" as="sourcePoint"/>
                        <mxPoint x="305" y="410" as="targetPoint"/>
                    </mxGeometry>
                </mxCell>
                <mxCell id="219" value="" style="endArrow=none;html=1;rounded=0;exitX=0;exitY=0;exitDx=0;exitDy=0;entryX=0.5;entryY=1;entryDx=0;entryDy=0;" parent="1" source="210" target="5" edge="1">
                    <mxGeometry relative="1" as="geometry">
                        <mxPoint x="384.75926405638893" y="555.8121712434813" as="sourcePoint"/>
                        <mxPoint x="305" y="410" as="targetPoint"/>
                    </mxGeometry>
                </mxCell>
                <mxCell id="220" value="" style="endArrow=none;html=1;rounded=0;exitX=0;exitY=0;exitDx=0;exitDy=0;entryX=0.5;entryY=1;entryDx=0;entryDy=0;" parent="1" source="211" target="5" edge="1">
                    <mxGeometry relative="1" as="geometry">
                        <mxPoint x="394.75926405638916" y="495.8121712434813" as="sourcePoint"/>
                        <mxPoint x="305" y="410" as="targetPoint"/>
                    </mxGeometry>
                </mxCell>
                <mxCell id="221" value="order_item_id" style="ellipse;whiteSpace=wrap;html=1;align=center;fontStyle=4;" parent="1" vertex="1">
                    <mxGeometry x="-400" y="730" width="100" height="40" as="geometry"/>
                </mxCell>
                <mxCell id="222" value="&lt;span style=&quot;border-bottom: 1px dotted&quot;&gt;order_id&lt;/span&gt;" style="ellipse;whiteSpace=wrap;html=1;align=center;" parent="1" vertex="1">
                    <mxGeometry x="-400" y="780" width="100" height="40" as="geometry"/>
                </mxCell>
                <mxCell id="223" value="&lt;span style=&quot;border-bottom: 1px dotted&quot;&gt;dish_id&lt;/span&gt;" style="ellipse;whiteSpace=wrap;html=1;align=center;" parent="1" vertex="1">
                    <mxGeometry x="-400" y="850" width="100" height="40" as="geometry"/>
                </mxCell>
                <mxCell id="224" value="quantity" style="ellipse;whiteSpace=wrap;html=1;align=center;" parent="1" vertex="1">
                    <mxGeometry x="-350" y="890" width="100" height="40" as="geometry"/>
                </mxCell>
                <mxCell id="225" value="special_instructions" style="ellipse;whiteSpace=wrap;html=1;align=center;" parent="1" vertex="1">
                    <mxGeometry x="-215" y="840" width="135" height="40" as="geometry"/>
                </mxCell>
                <mxCell id="226" value="price" style="ellipse;whiteSpace=wrap;html=1;align=center;" parent="1" vertex="1">
                    <mxGeometry x="-240" y="890" width="100" height="40" as="geometry"/>
                </mxCell>
                <mxCell id="227" value="created_at" style="ellipse;whiteSpace=wrap;html=1;align=center;" parent="1" vertex="1">
                    <mxGeometry x="-200" y="780" width="100" height="40" as="geometry"/>
                </mxCell>
                <mxCell id="228" value="updated_at&amp;nbsp;" style="ellipse;whiteSpace=wrap;html=1;align=center;" parent="1" vertex="1">
                    <mxGeometry x="-200" y="730" width="100" height="40" as="geometry"/>
                </mxCell>
                <mxCell id="229" value="" style="endArrow=none;html=1;rounded=0;exitX=1;exitY=0;exitDx=0;exitDy=0;entryX=0.5;entryY=1;entryDx=0;entryDy=0;" parent="1" source="221" target="47" edge="1">
                    <mxGeometry relative="1" as="geometry">
                        <mxPoint x="-149.98049600009176" y="559.99872059263" as="sourcePoint"/>
                        <mxPoint x="-70.00999999999999" y="514.27" as="targetPoint"/>
                    </mxGeometry>
                </mxCell>
                <mxCell id="230" value="" style="endArrow=none;html=1;rounded=0;exitX=1;exitY=0;exitDx=0;exitDy=0;entryX=0.5;entryY=1;entryDx=0;entryDy=0;" parent="1" source="222" target="47" edge="1">
                    <mxGeometry relative="1" as="geometry">
                        <mxPoint x="-164.79938668707882" y="545.7962437509264" as="sourcePoint"/>
                        <mxPoint x="-40" y="499.9999999999998" as="targetPoint"/>
                    </mxGeometry>
                </mxCell>
                <mxCell id="231" value="" style="endArrow=none;html=1;rounded=0;exitX=1;exitY=0;exitDx=0;exitDy=0;entryX=0.5;entryY=1;entryDx=0;entryDy=0;" parent="1" source="223" target="47" edge="1">
                    <mxGeometry relative="1" as="geometry">
                        <mxPoint x="-154.79938668707427" y="595.796243750925" as="sourcePoint"/>
                        <mxPoint x="-40" y="499.9999999999998" as="targetPoint"/>
                    </mxGeometry>
                </mxCell>
                <mxCell id="232" value="" style="endArrow=none;html=1;rounded=0;exitX=0.5;exitY=0;exitDx=0;exitDy=0;entryX=0.5;entryY=1;entryDx=0;entryDy=0;" parent="1" source="224" target="47" edge="1">
                    <mxGeometry relative="1" as="geometry">
                        <mxPoint x="-144.91978735024054" y="645.7486636110352" as="sourcePoint"/>
                        <mxPoint x="-39.99999999999977" y="500" as="targetPoint"/>
                    </mxGeometry>
                </mxCell>
                <mxCell id="234" value="" style="endArrow=none;html=1;rounded=0;exitX=0;exitY=0;exitDx=0;exitDy=0;entryX=0.5;entryY=1;entryDx=0;entryDy=0;" parent="1" source="226" target="47" edge="1">
                    <mxGeometry relative="1" as="geometry">
                        <mxPoint x="-114.83221847965342" y="705.7832372577323" as="sourcePoint"/>
                        <mxPoint x="-40" y="500" as="targetPoint"/>
                    </mxGeometry>
                </mxCell>
                <mxCell id="235" value="" style="endArrow=none;html=1;rounded=0;exitX=0;exitY=0;exitDx=0;exitDy=0;entryX=0.5;entryY=1;entryDx=0;entryDy=0;" parent="1" source="225" target="47" edge="1">
                    <mxGeometry relative="1" as="geometry">
                        <mxPoint x="-114.83221847965342" y="755.7832372577323" as="sourcePoint"/>
                        <mxPoint y="510" as="targetPoint"/>
                    </mxGeometry>
                </mxCell>
                <mxCell id="236" value="" style="endArrow=none;html=1;rounded=0;exitX=0.5;exitY=0;exitDx=0;exitDy=0;entryX=0.5;entryY=1;entryDx=0;entryDy=0;" parent="1" source="228" target="47" edge="1">
                    <mxGeometry relative="1" as="geometry">
                        <mxPoint x="-42.5" y="790" as="sourcePoint"/>
                        <mxPoint x="-40" y="499.9999999999998" as="targetPoint"/>
                    </mxGeometry>
                </mxCell>
                <mxCell id="237" value="" style="endArrow=none;html=1;rounded=0;exitX=0;exitY=0;exitDx=0;exitDy=0;entryX=0.5;entryY=1;entryDx=0;entryDy=0;" parent="1" source="227" target="47" edge="1">
                    <mxGeometry relative="1" as="geometry">
                        <mxPoint x="80" y="670" as="sourcePoint"/>
                        <mxPoint x="-40" y="500" as="targetPoint"/>
                    </mxGeometry>
                </mxCell>
                <mxCell id="239" value="plan_id" style="ellipse;whiteSpace=wrap;html=1;align=center;fontStyle=4;" parent="1" vertex="1">
                    <mxGeometry x="1785" y="955" width="100" height="40" as="geometry"/>
                </mxCell>
                <mxCell id="240" value="name" style="ellipse;whiteSpace=wrap;html=1;align=center;" parent="1" vertex="1">
                    <mxGeometry x="1815" y="1005" width="100" height="40" as="geometry"/>
                </mxCell>
                <mxCell id="241" value="description" style="ellipse;whiteSpace=wrap;html=1;align=center;" parent="1" vertex="1">
                    <mxGeometry x="1850" y="1055" width="100" height="40" as="geometry"/>
                </mxCell>
                <mxCell id="242" value="price" style="ellipse;whiteSpace=wrap;html=1;align=center;" parent="1" vertex="1">
                    <mxGeometry x="1925" y="1105" width="75" height="30" as="geometry"/>
                </mxCell>
                <mxCell id="243" value="duration_days" style="ellipse;whiteSpace=wrap;html=1;align=center;" parent="1" vertex="1">
                    <mxGeometry x="2005" y="1095" width="100" height="40" as="geometry"/>
                </mxCell>
                <mxCell id="244" value="is_active" style="ellipse;whiteSpace=wrap;html=1;align=center;" parent="1" vertex="1">
                    <mxGeometry x="2025" y="1045" width="100" height="40" as="geometry"/>
                </mxCell>
                <mxCell id="245" value="created_at" style="ellipse;whiteSpace=wrap;html=1;align=center;" parent="1" vertex="1">
                    <mxGeometry x="2025" y="995" width="100" height="40" as="geometry"/>
                </mxCell>
                <mxCell id="246" value="updated_at" style="ellipse;whiteSpace=wrap;html=1;align=center;" parent="1" vertex="1">
                    <mxGeometry x="2025" y="945" width="100" height="40" as="geometry"/>
                </mxCell>
                <mxCell id="247" value="" style="endArrow=none;html=1;rounded=0;exitX=0.5;exitY=1;exitDx=0;exitDy=0;entryX=0.5;entryY=0;entryDx=0;entryDy=0;" parent="1" source="51" target="239" edge="1">
                    <mxGeometry relative="1" as="geometry">
                        <mxPoint x="1879.9999999999995" y="800" as="sourcePoint"/>
                        <mxPoint x="2249.9999999999995" y="820" as="targetPoint"/>
                    </mxGeometry>
                </mxCell>
                <mxCell id="248" value="" style="endArrow=none;html=1;rounded=0;exitX=0.5;exitY=1;exitDx=0;exitDy=0;entryX=1;entryY=0;entryDx=0;entryDy=0;" parent="1" source="51" target="240" edge="1">
                    <mxGeometry relative="1" as="geometry">
                        <mxPoint x="1820" y="770" as="sourcePoint"/>
                        <mxPoint x="1790" y="850" as="targetPoint"/>
                    </mxGeometry>
                </mxCell>
                <mxCell id="249" value="" style="endArrow=none;html=1;rounded=0;exitX=0.5;exitY=1;exitDx=0;exitDy=0;entryX=1;entryY=0;entryDx=0;entryDy=0;" parent="1" source="51" target="241" edge="1">
                    <mxGeometry relative="1" as="geometry">
                        <mxPoint x="1820" y="770" as="sourcePoint"/>
                        <mxPoint x="1855.3553390593415" y="905.8578643762635" as="targetPoint"/>
                    </mxGeometry>
                </mxCell>
                <mxCell id="250" value="" style="endArrow=none;html=1;rounded=0;exitX=0.5;exitY=1;exitDx=0;exitDy=0;entryX=1;entryY=0;entryDx=0;entryDy=0;" parent="1" source="51" target="242" edge="1">
                    <mxGeometry relative="1" as="geometry">
                        <mxPoint x="1820" y="770" as="sourcePoint"/>
                        <mxPoint x="1890.3553390593274" y="955.8578643762689" as="targetPoint"/>
                    </mxGeometry>
                </mxCell>
                <mxCell id="251" value="" style="endArrow=none;html=1;rounded=0;exitX=0.5;exitY=1;exitDx=0;exitDy=0;entryX=0;entryY=0;entryDx=0;entryDy=0;" parent="1" source="51" target="243" edge="1">
                    <mxGeometry relative="1" as="geometry">
                        <mxPoint x="1820" y="770" as="sourcePoint"/>
                        <mxPoint x="1944.016504294496" y="1004.3933982822014" as="targetPoint"/>
                    </mxGeometry>
                </mxCell>
                <mxCell id="252" value="" style="endArrow=none;html=1;rounded=0;exitX=0.5;exitY=1;exitDx=0;exitDy=0;entryX=0;entryY=0;entryDx=0;entryDy=0;" parent="1" source="51" target="244" edge="1">
                    <mxGeometry relative="1" as="geometry">
                        <mxPoint x="1820" y="770" as="sourcePoint"/>
                        <mxPoint x="1974.644660940672" y="995.8578643762689" as="targetPoint"/>
                    </mxGeometry>
                </mxCell>
                <mxCell id="253" value="" style="endArrow=none;html=1;rounded=0;exitX=0.5;exitY=1;exitDx=0;exitDy=0;entryX=0;entryY=0;entryDx=0;entryDy=0;" parent="1" source="51" target="244" edge="1">
                    <mxGeometry relative="1" as="geometry">
                        <mxPoint x="1820" y="770" as="sourcePoint"/>
                        <mxPoint x="1994.644660940672" y="945.8578643762689" as="targetPoint"/>
                    </mxGeometry>
                </mxCell>
                <mxCell id="254" value="" style="endArrow=none;html=1;rounded=0;exitX=0.5;exitY=1;exitDx=0;exitDy=0;entryX=0;entryY=0;entryDx=0;entryDy=0;" parent="1" source="51" target="245" edge="1">
                    <mxGeometry relative="1" as="geometry">
                        <mxPoint x="1820" y="770" as="sourcePoint"/>
                        <mxPoint x="1994.644660940673" y="945.8578643762694" as="targetPoint"/>
                    </mxGeometry>
                </mxCell>
                <mxCell id="255" value="" style="endArrow=none;html=1;rounded=0;exitX=0.5;exitY=1;exitDx=0;exitDy=0;entryX=0;entryY=0;entryDx=0;entryDy=0;" parent="1" source="51" target="246" edge="1">
                    <mxGeometry relative="1" as="geometry">
                        <mxPoint x="1820" y="770" as="sourcePoint"/>
                        <mxPoint x="1994.644660940673" y="895.8578643762694" as="targetPoint"/>
                    </mxGeometry>
                </mxCell>
                <mxCell id="256" value="subscription_id" style="ellipse;whiteSpace=wrap;html=1;align=center;fontStyle=4;" parent="1" vertex="1">
                    <mxGeometry x="1585" y="1765" width="100" height="40" as="geometry"/>
                </mxCell>
                <mxCell id="257" value="&lt;span style=&quot;border-bottom: 1px dotted&quot;&gt;user_id&lt;/span&gt;" style="ellipse;whiteSpace=wrap;html=1;align=center;" parent="1" vertex="1">
                    <mxGeometry x="1595" y="1820" width="100" height="40" as="geometry"/>
                </mxCell>
                <mxCell id="258" value="" style="endArrow=none;html=1;rounded=0;exitX=0.5;exitY=1;exitDx=0;exitDy=0;entryX=1;entryY=0;entryDx=0;entryDy=0;" parent="1" source="6" target="256" edge="1">
                    <mxGeometry relative="1" as="geometry">
                        <mxPoint x="1720" y="1220" as="sourcePoint"/>
                        <mxPoint x="1645.355339059356" y="1275.857864376257" as="targetPoint"/>
                    </mxGeometry>
                </mxCell>
                <mxCell id="259" value="" style="endArrow=none;html=1;rounded=0;exitX=0.5;exitY=1;exitDx=0;exitDy=0;entryX=1;entryY=0;entryDx=0;entryDy=0;" parent="1" source="6" target="260" edge="1">
                    <mxGeometry relative="1" as="geometry">
                        <mxPoint x="1720" y="1230" as="sourcePoint"/>
                        <mxPoint x="1655.1857720015973" y="1285.7903613070466" as="targetPoint"/>
                    </mxGeometry>
                </mxCell>
                <mxCell id="260" value="&lt;span style=&quot;border-bottom: 1px dotted&quot;&gt;plan_id&lt;/span&gt;" style="ellipse;whiteSpace=wrap;html=1;align=center;" parent="1" vertex="1">
                    <mxGeometry x="1625" y="1880" width="100" height="40" as="geometry"/>
                </mxCell>
                <mxCell id="261" value="" style="endArrow=none;html=1;rounded=0;entryX=1;entryY=0;entryDx=0;entryDy=0;exitX=0.5;exitY=1;exitDx=0;exitDy=0;" parent="1" source="6" edge="1" target="257">
                    <mxGeometry relative="1" as="geometry">
                        <mxPoint x="1720" y="1230" as="sourcePoint"/>
                        <mxPoint x="1665.1857720015973" y="1345.7903613070466" as="targetPoint"/>
                    </mxGeometry>
                </mxCell>
                <mxCell id="262" value="start_date" style="ellipse;whiteSpace=wrap;html=1;align=center;" parent="1" vertex="1">
                    <mxGeometry x="1695" y="1920" width="75" height="30" as="geometry"/>
                </mxCell>
                <mxCell id="263" value="end_date" style="ellipse;whiteSpace=wrap;html=1;align=center;" parent="1" vertex="1">
                    <mxGeometry x="1760" y="1880" width="75" height="30" as="geometry"/>
                </mxCell>
                <mxCell id="264" value="status" style="ellipse;whiteSpace=wrap;html=1;align=center;" parent="1" vertex="1">
                    <mxGeometry x="1780" y="1840" width="75" height="30" as="geometry"/>
                </mxCell>
                <mxCell id="265" value="auto_renew" style="ellipse;whiteSpace=wrap;html=1;align=center;" parent="1" vertex="1">
                    <mxGeometry x="1795" y="1800" width="75" height="30" as="geometry"/>
                </mxCell>
                <mxCell id="266" value="created_at" style="ellipse;whiteSpace=wrap;html=1;align=center;" parent="1" vertex="1">
                    <mxGeometry x="1800" y="1765" width="75" height="30" as="geometry"/>
                </mxCell>
                <mxCell id="267" value="updated_at" style="ellipse;whiteSpace=wrap;html=1;align=center;" parent="1" vertex="1">
                    <mxGeometry x="1800" y="1730" width="75" height="30" as="geometry"/>
                </mxCell>
                <mxCell id="268" value="" style="endArrow=none;html=1;rounded=0;exitX=0.5;exitY=1;exitDx=0;exitDy=0;entryX=0.5;entryY=0;entryDx=0;entryDy=0;" parent="1" source="6" target="262" edge="1">
                    <mxGeometry relative="1" as="geometry">
                        <mxPoint x="1720" y="1230" as="sourcePoint"/>
                        <mxPoint x="1685.1857720016142" y="1405.7903613070407" as="targetPoint"/>
                    </mxGeometry>
                </mxCell>
                <mxCell id="269" value="" style="endArrow=none;html=1;rounded=0;exitX=0.5;exitY=1;exitDx=0;exitDy=0;entryX=0;entryY=0;entryDx=0;entryDy=0;" parent="1" source="6" target="263" edge="1">
                    <mxGeometry relative="1" as="geometry">
                        <mxPoint x="1720" y="1230" as="sourcePoint"/>
                        <mxPoint x="1714.254306022844" y="1454.48937977674" as="targetPoint"/>
                    </mxGeometry>
                </mxCell>
                <mxCell id="270" value="" style="endArrow=none;html=1;rounded=0;exitX=0.5;exitY=1;exitDx=0;exitDy=0;entryX=0;entryY=0;entryDx=0;entryDy=0;" parent="1" source="6" target="264" edge="1">
                    <mxGeometry relative="1" as="geometry">
                        <mxPoint x="1720" y="1230" as="sourcePoint"/>
                        <mxPoint x="1732.5" y="1490" as="targetPoint"/>
                    </mxGeometry>
                </mxCell>
                <mxCell id="271" value="" style="endArrow=none;html=1;rounded=0;exitX=0.5;exitY=1;exitDx=0;exitDy=0;entryX=0;entryY=0;entryDx=0;entryDy=0;" parent="1" source="6" target="265" edge="1">
                    <mxGeometry relative="1" as="geometry">
                        <mxPoint x="1720" y="1230" as="sourcePoint"/>
                        <mxPoint x="1785.7456939771391" y="1434.4893797767331" as="targetPoint"/>
                    </mxGeometry>
                </mxCell>
                <mxCell id="272" value="" style="endArrow=none;html=1;rounded=0;exitX=0.5;exitY=1;exitDx=0;exitDy=0;entryX=0;entryY=0;entryDx=0;entryDy=0;" parent="1" source="6" target="266" edge="1">
                    <mxGeometry relative="1" as="geometry">
                        <mxPoint x="1720" y="1230" as="sourcePoint"/>
                        <mxPoint x="1800.745693977156" y="1364.48937977674" as="targetPoint"/>
                    </mxGeometry>
                </mxCell>
                <mxCell id="273" value="" style="endArrow=none;html=1;rounded=0;entryX=0.5;entryY=1;entryDx=0;entryDy=0;" parent="1" source="267" target="6" edge="1">
                    <mxGeometry relative="1" as="geometry">
                        <mxPoint x="1720" y="1230" as="sourcePoint"/>
                        <mxPoint x="1813.245693977156" y="1324.4893797767395" as="targetPoint"/>
                    </mxGeometry>
                </mxCell>
                <mxCell id="274" value="payment_id" style="ellipse;whiteSpace=wrap;html=1;align=center;fontStyle=4;" parent="1" vertex="1">
                    <mxGeometry x="145" y="1750" width="100" height="40" as="geometry"/>
                </mxCell>
                <mxCell id="275" value="&lt;span style=&quot;border-bottom: 1px dotted&quot;&gt;subscription_id&lt;/span&gt;" style="ellipse;whiteSpace=wrap;html=1;align=center;" parent="1" vertex="1">
                    <mxGeometry x="150" y="1800" width="100" height="40" as="geometry"/>
                </mxCell>
                <mxCell id="276" value="" style="endArrow=none;html=1;rounded=0;exitX=0.5;exitY=1;exitDx=0;exitDy=0;entryX=1;entryY=0;entryDx=0;entryDy=0;" parent="1" source="10" target="274" edge="1">
                    <mxGeometry relative="1" as="geometry">
                        <mxPoint x="205" y="1260" as="sourcePoint"/>
                        <mxPoint x="140.22366318451668" y="1315.8053894629556" as="targetPoint"/>
                    </mxGeometry>
                </mxCell>
                <mxCell id="277" value="" style="endArrow=none;html=1;rounded=0;exitX=0.5;exitY=1;exitDx=0;exitDy=0;entryX=1;entryY=0;entryDx=0;entryDy=0;" parent="1" source="10" target="275" edge="1">
                    <mxGeometry relative="1" as="geometry">
                        <mxPoint x="264.9999999999998" y="1250" as="sourcePoint"/>
                        <mxPoint x="120.22366318450986" y="1305.8053894629588" as="targetPoint"/>
                    </mxGeometry>
                </mxCell>
                <mxCell id="279" value="amount" style="ellipse;whiteSpace=wrap;html=1;align=center;" parent="1" vertex="1">
                    <mxGeometry x="160" y="1850" width="100" height="40" as="geometry"/>
                </mxCell>
                <mxCell id="280" value="payment_date" style="ellipse;whiteSpace=wrap;html=1;align=center;" parent="1" vertex="1">
                    <mxGeometry x="185" y="1900" width="100" height="40" as="geometry"/>
                </mxCell>
                <mxCell id="281" value="payment_method" style="ellipse;whiteSpace=wrap;html=1;align=center;" parent="1" vertex="1">
                    <mxGeometry x="260" y="1930" width="140" height="40" as="geometry"/>
                </mxCell>
                <mxCell id="282" value="status" style="ellipse;whiteSpace=wrap;html=1;align=center;" parent="1" vertex="1">
                    <mxGeometry x="360" y="1880" width="100" height="40" as="geometry"/>
                </mxCell>
                <mxCell id="283" value="" style="endArrow=none;html=1;rounded=0;exitX=0.5;exitY=1;exitDx=0;exitDy=0;entryX=1;entryY=0;entryDx=0;entryDy=0;" parent="1" source="10" target="279" edge="1">
                    <mxGeometry relative="1" as="geometry">
                        <mxPoint x="265" y="1250" as="sourcePoint"/>
                        <mxPoint x="130.35533905932743" y="1365.857864376269" as="targetPoint"/>
                    </mxGeometry>
                </mxCell>
                <mxCell id="284" value="" style="endArrow=none;html=1;rounded=0;exitX=0.5;exitY=1;exitDx=0;exitDy=0;entryX=1;entryY=0;entryDx=0;entryDy=0;" parent="1" source="10" target="280" edge="1">
                    <mxGeometry relative="1" as="geometry">
                        <mxPoint x="265" y="1250" as="sourcePoint"/>
                        <mxPoint x="170.35533905932743" y="1420.857864376269" as="targetPoint"/>
                    </mxGeometry>
                </mxCell>
                <mxCell id="285" value="" style="endArrow=none;html=1;rounded=0;exitX=0.5;exitY=1;exitDx=0;exitDy=0;entryX=0.5;entryY=0;entryDx=0;entryDy=0;" parent="1" source="10" target="281" edge="1">
                    <mxGeometry relative="1" as="geometry">
                        <mxPoint x="265" y="1250" as="sourcePoint"/>
                        <mxPoint x="205.35533905932743" y="1475.857864376269" as="targetPoint"/>
                    </mxGeometry>
                </mxCell>
                <mxCell id="286" value="" style="endArrow=none;html=1;rounded=0;exitX=0.5;exitY=1;exitDx=0;exitDy=0;entryX=0;entryY=0;entryDx=0;entryDy=0;" parent="1" source="10" target="282" edge="1">
                    <mxGeometry relative="1" as="geometry">
                        <mxPoint x="265" y="1250" as="sourcePoint"/>
                        <mxPoint x="249.4974746830585" y="1535.857864376269" as="targetPoint"/>
                    </mxGeometry>
                </mxCell>
                <mxCell id="287" value="transaction_id" style="ellipse;whiteSpace=wrap;html=1;align=center;" parent="1" vertex="1">
                    <mxGeometry x="380" y="1830" width="100" height="40" as="geometry"/>
                </mxCell>
                <mxCell id="288" value="created_at" style="ellipse;whiteSpace=wrap;html=1;align=center;" parent="1" vertex="1">
                    <mxGeometry x="390" y="1785" width="100" height="40" as="geometry"/>
                </mxCell>
                <mxCell id="289" value="updated_at" style="ellipse;whiteSpace=wrap;html=1;align=center;" parent="1" vertex="1">
                    <mxGeometry x="390" y="1740" width="100" height="40" as="geometry"/>
                </mxCell>
                <mxCell id="290" value="" style="endArrow=none;html=1;rounded=0;exitX=0.5;exitY=1;exitDx=0;exitDy=0;entryX=0;entryY=0;entryDx=0;entryDy=0;" parent="1" source="10" target="287" edge="1">
                    <mxGeometry relative="1" as="geometry">
                        <mxPoint x="264.9999999999998" y="1250" as="sourcePoint"/>
                        <mxPoint x="309.7763368154899" y="1475.8053894629584" as="targetPoint"/>
                    </mxGeometry>
                </mxCell>
                <mxCell id="291" value="" style="endArrow=none;html=1;rounded=0;exitX=0.5;exitY=1;exitDx=0;exitDy=0;entryX=0;entryY=0;entryDx=0;entryDy=0;" parent="1" source="10" target="288" edge="1">
                    <mxGeometry relative="1" as="geometry">
                        <mxPoint x="264.9999999999998" y="1250" as="sourcePoint"/>
                        <mxPoint x="339.7763368154899" y="1415.8053894629588" as="targetPoint"/>
                    </mxGeometry>
                </mxCell>
                <mxCell id="292" value="" style="endArrow=none;html=1;rounded=0;exitX=0.5;exitY=1;exitDx=0;exitDy=0;entryX=0;entryY=0;entryDx=0;entryDy=0;" parent="1" source="10" target="289" edge="1">
                    <mxGeometry relative="1" as="geometry">
                        <mxPoint x="264.9999999999998" y="1250" as="sourcePoint"/>
                        <mxPoint x="349.77633681549037" y="1355.8053894629593" as="targetPoint"/>
                    </mxGeometry>
                </mxCell>
                <mxCell id="293" value="transaction_id" style="ellipse;whiteSpace=wrap;html=1;align=center;fontStyle=4;" parent="1" vertex="1">
                    <mxGeometry x="15" y="660" width="100" height="40" as="geometry"/>
                </mxCell>
                <mxCell id="294" value="&lt;span style=&quot;border-bottom: 1px dotted&quot;&gt;user_id&lt;/span&gt;" style="ellipse;whiteSpace=wrap;html=1;align=center;" parent="1" vertex="1">
                    <mxGeometry x="-30" y="610" width="100" height="40" as="geometry"/>
                </mxCell>
                <mxCell id="295" value="amount" style="ellipse;whiteSpace=wrap;html=1;align=center;" parent="1" vertex="1">
                    <mxGeometry x="-15" y="560" width="100" height="40" as="geometry"/>
                </mxCell>
                <mxCell id="296" value="payment_method" style="ellipse;whiteSpace=wrap;html=1;align=center;" parent="1" vertex="1">
                    <mxGeometry x="15" y="520" width="120" height="40" as="geometry"/>
                </mxCell>
                <mxCell id="297" value="status" style="ellipse;whiteSpace=wrap;html=1;align=center;" parent="1" vertex="1">
                    <mxGeometry x="50" y="470" width="120" height="40" as="geometry"/>
                </mxCell>
                <mxCell id="298" value="payment_date" style="ellipse;whiteSpace=wrap;html=1;align=center;" parent="1" vertex="1">
                    <mxGeometry x="150" y="440" width="120" height="40" as="geometry"/>
                </mxCell>
                <mxCell id="299" value="&lt;span style=&quot;border-bottom: 1px dotted&quot;&gt;order_id&lt;/span&gt;" style="ellipse;whiteSpace=wrap;html=1;align=center;" parent="1" vertex="1">
                    <mxGeometry x="220" y="490" width="100" height="40" as="geometry"/>
                </mxCell>
                <mxCell id="300" value="&lt;span style=&quot;border-bottom: 1px dotted&quot;&gt;subscription_id&amp;nbsp;&lt;/span&gt;" style="ellipse;whiteSpace=wrap;html=1;align=center;" parent="1" vertex="1">
                    <mxGeometry x="255" y="540" width="100" height="40" as="geometry"/>
                </mxCell>
                <mxCell id="302" value="created_at" style="ellipse;whiteSpace=wrap;html=1;align=center;" parent="1" vertex="1">
                    <mxGeometry x="280" y="590" width="120" height="40" as="geometry"/>
                </mxCell>
                <mxCell id="303" value="updated_at" style="ellipse;whiteSpace=wrap;html=1;align=center;" parent="1" vertex="1">
                    <mxGeometry x="275" y="640" width="120" height="40" as="geometry"/>
                </mxCell>
                <mxCell id="304" value="" style="endArrow=none;html=1;rounded=0;exitX=0.5;exitY=0;exitDx=0;exitDy=0;entryX=1;entryY=0.5;entryDx=0;entryDy=0;" parent="1" source="53" target="293" edge="1">
                    <mxGeometry relative="1" as="geometry">
                        <mxPoint x="279.8142279984022" y="455.7903613070466" as="sourcePoint"/>
                        <mxPoint x="190" y="420" as="targetPoint"/>
                    </mxGeometry>
                </mxCell>
                <mxCell id="305" value="" style="endArrow=none;html=1;rounded=0;exitX=0.5;exitY=0;exitDx=0;exitDy=0;entryX=1;entryY=0.5;entryDx=0;entryDy=0;" parent="1" source="53" target="294" edge="1">
                    <mxGeometry relative="1" as="geometry">
                        <mxPoint x="285" y="429.9999999999998" as="sourcePoint"/>
                        <mxPoint x="170" y="419.9999999999998" as="targetPoint"/>
                    </mxGeometry>
                </mxCell>
                <mxCell id="306" value="" style="endArrow=none;html=1;rounded=0;exitX=0.5;exitY=0;exitDx=0;exitDy=0;entryX=1;entryY=1;entryDx=0;entryDy=0;" parent="1" source="53" target="295" edge="1">
                    <mxGeometry relative="1" as="geometry">
                        <mxPoint x="320" y="449.9999999999998" as="sourcePoint"/>
                        <mxPoint x="160" y="389.9999999999998" as="targetPoint"/>
                    </mxGeometry>
                </mxCell>
                <mxCell id="307" value="" style="endArrow=none;html=1;rounded=0;exitX=0.5;exitY=0;exitDx=0;exitDy=0;entryX=1;entryY=1;entryDx=0;entryDy=0;" parent="1" source="53" target="296" edge="1">
                    <mxGeometry relative="1" as="geometry">
                        <mxPoint x="329.81" y="437.89999999999975" as="sourcePoint"/>
                        <mxPoint x="169.99577200159803" y="342.1096386929531" as="targetPoint"/>
                    </mxGeometry>
                </mxCell>
                <mxCell id="308" value="" style="endArrow=none;html=1;rounded=0;exitX=0.5;exitY=0;exitDx=0;exitDy=0;entryX=1;entryY=1;entryDx=0;entryDy=0;" parent="1" source="53" target="297" edge="1">
                    <mxGeometry relative="1" as="geometry">
                        <mxPoint x="315" y="479.9999999999998" as="sourcePoint"/>
                        <mxPoint x="202.42640687119956" y="344.1421356237331" as="targetPoint"/>
                    </mxGeometry>
                </mxCell>
                <mxCell id="309" value="" style="endArrow=none;html=1;rounded=0;exitX=0.5;exitY=0;exitDx=0;exitDy=0;entryX=0.5;entryY=1;entryDx=0;entryDy=0;" parent="1" source="53" target="298" edge="1">
                    <mxGeometry relative="1" as="geometry">
                        <mxPoint x="315" y="479.9999999999998" as="sourcePoint"/>
                        <mxPoint x="237.42640687119297" y="294.14213562373106" as="targetPoint"/>
                    </mxGeometry>
                </mxCell>
                <mxCell id="310" value="" style="endArrow=none;html=1;rounded=0;exitX=0.5;exitY=0;exitDx=0;exitDy=0;entryX=0;entryY=1;entryDx=0;entryDy=0;" parent="1" source="53" target="299" edge="1">
                    <mxGeometry relative="1" as="geometry">
                        <mxPoint x="315" y="479.9999999999998" as="sourcePoint"/>
                        <mxPoint x="295" y="270" as="targetPoint"/>
                    </mxGeometry>
                </mxCell>
                <mxCell id="311" value="" style="endArrow=none;html=1;rounded=0;exitX=0.5;exitY=0;exitDx=0;exitDy=0;entryX=0;entryY=1;entryDx=0;entryDy=0;" parent="1" source="53" target="300" edge="1">
                    <mxGeometry relative="1" as="geometry">
                        <mxPoint x="315" y="479.9999999999998" as="sourcePoint"/>
                        <mxPoint x="319.814227998402" y="314.2096386929534" as="targetPoint"/>
                    </mxGeometry>
                </mxCell>
                <mxCell id="312" value="" style="endArrow=none;html=1;rounded=0;exitX=0.5;exitY=0;exitDx=0;exitDy=0;entryX=0;entryY=1;entryDx=0;entryDy=0;" parent="1" source="53" target="302" edge="1">
                    <mxGeometry relative="1" as="geometry">
                        <mxPoint x="315" y="479.9999999999998" as="sourcePoint"/>
                        <mxPoint x="354.81422799841016" y="364.20963869294974" as="targetPoint"/>
                    </mxGeometry>
                </mxCell>
                <mxCell id="313" value="" style="endArrow=none;html=1;rounded=0;exitX=0.5;exitY=0;exitDx=0;exitDy=0;entryX=0;entryY=1;entryDx=0;entryDy=0;" parent="1" source="53" target="303" edge="1">
                    <mxGeometry relative="1" as="geometry">
                        <mxPoint x="315" y="479.9999999999998" as="sourcePoint"/>
                        <mxPoint x="357.5735931288077" y="414.14213562373106" as="targetPoint"/>
                    </mxGeometry>
                </mxCell>
                <mxCell id="314" value="review_id" style="ellipse;whiteSpace=wrap;html=1;align=center;fontStyle=4;" parent="1" vertex="1">
                    <mxGeometry x="445" y="80" width="100" height="40" as="geometry"/>
                </mxCell>
                <mxCell id="315" value="&lt;span style=&quot;border-bottom: 1px dotted&quot;&gt;dish_id&lt;/span&gt;" style="ellipse;whiteSpace=wrap;html=1;align=center;" parent="1" vertex="1">
                    <mxGeometry x="450" y="130" width="100" height="40" as="geometry"/>
                </mxCell>
                <mxCell id="316" value="rating" style="ellipse;whiteSpace=wrap;html=1;align=center;" parent="1" vertex="1">
                    <mxGeometry x="500" y="230" width="100" height="40" as="geometry"/>
                </mxCell>
                <mxCell id="317" value="" style="endArrow=none;html=1;rounded=0;exitX=1;exitY=0;exitDx=0;exitDy=0;entryX=0.5;entryY=1;entryDx=0;entryDy=0;" parent="1" source="314" target="7" edge="1">
                    <mxGeometry relative="1" as="geometry">
                        <mxPoint x="617.4300000000001" y="302.93" as="sourcePoint"/>
                        <mxPoint x="685.0035931288073" y="237.07213562373107" as="targetPoint"/>
                    </mxGeometry>
                </mxCell>
                <mxCell id="318" value="" style="endArrow=none;html=1;rounded=0;exitX=1;exitY=0;exitDx=0;exitDy=0;entryX=0.5;entryY=1;entryDx=0;entryDy=0;" parent="1" source="315" target="7" edge="1">
                    <mxGeometry relative="1" as="geometry">
                        <mxPoint x="505.35533905932743" y="215.85786437626894" as="sourcePoint"/>
                        <mxPoint x="585" y="190" as="targetPoint"/>
                    </mxGeometry>
                </mxCell>
                <mxCell id="319" value="&lt;span style=&quot;border-bottom: 1px dotted&quot;&gt;user_id&lt;/span&gt;" style="ellipse;whiteSpace=wrap;html=1;align=center;" parent="1" vertex="1">
                    <mxGeometry x="470" y="180" width="100" height="40" as="geometry"/>
                </mxCell>
                <mxCell id="320" value="comment" style="ellipse;whiteSpace=wrap;html=1;align=center;" parent="1" vertex="1">
                    <mxGeometry x="540" y="280" width="100" height="40" as="geometry"/>
                </mxCell>
                <mxCell id="321" value="review_date" style="ellipse;whiteSpace=wrap;html=1;align=center;" parent="1" vertex="1">
                    <mxGeometry x="640" y="260" width="100" height="40" as="geometry"/>
                </mxCell>
                <mxCell id="322" value="review_date" style="ellipse;whiteSpace=wrap;html=1;align=center;" parent="1" vertex="1">
                    <mxGeometry x="650" y="210" width="100" height="40" as="geometry"/>
                </mxCell>
                <mxCell id="323" value="" style="endArrow=none;html=1;rounded=0;exitX=1;exitY=0;exitDx=0;exitDy=0;entryX=0.5;entryY=1;entryDx=0;entryDy=0;" parent="1" source="319" target="7" edge="1">
                    <mxGeometry relative="1" as="geometry">
                        <mxPoint x="545.3553390593347" y="145.8578643762662" as="sourcePoint"/>
                        <mxPoint x="585" y="60" as="targetPoint"/>
                    </mxGeometry>
                </mxCell>
                <mxCell id="324" value="" style="endArrow=none;html=1;rounded=0;exitX=1;exitY=0;exitDx=0;exitDy=0;entryX=0.5;entryY=1;entryDx=0;entryDy=0;" parent="1" source="316" target="7" edge="1">
                    <mxGeometry relative="1" as="geometry">
                        <mxPoint x="565.3553390593272" y="195.8578643762694" as="sourcePoint"/>
                        <mxPoint x="585" y="60" as="targetPoint"/>
                    </mxGeometry>
                </mxCell>
                <mxCell id="325" value="" style="endArrow=none;html=1;rounded=0;exitX=1;exitY=0;exitDx=0;exitDy=0;entryX=0.5;entryY=1;entryDx=0;entryDy=0;" parent="1" source="320" target="7" edge="1">
                    <mxGeometry relative="1" as="geometry">
                        <mxPoint x="595.3553390593347" y="245.8578643762662" as="sourcePoint"/>
                        <mxPoint x="585" y="60" as="targetPoint"/>
                    </mxGeometry>
                </mxCell>
                <mxCell id="326" value="" style="endArrow=none;html=1;rounded=0;exitX=0;exitY=0;exitDx=0;exitDy=0;entryX=0.5;entryY=1;entryDx=0;entryDy=0;" parent="1" source="321" target="7" edge="1">
                    <mxGeometry relative="1" as="geometry">
                        <mxPoint x="635.3553390593347" y="295.8578643762662" as="sourcePoint"/>
                        <mxPoint x="585" y="60" as="targetPoint"/>
                    </mxGeometry>
                </mxCell>
                <mxCell id="327" value="" style="endArrow=none;html=1;rounded=0;exitX=0;exitY=0;exitDx=0;exitDy=0;entryX=0.5;entryY=1;entryDx=0;entryDy=0;" parent="1" source="322" target="7" edge="1">
                    <mxGeometry relative="1" as="geometry">
                        <mxPoint x="664.6446609406726" y="275.8578643762694" as="sourcePoint"/>
                        <mxPoint x="585" y="60" as="targetPoint"/>
                    </mxGeometry>
                </mxCell>
                <mxCell id="328" value="&lt;span style=&quot;border-bottom: 1px dotted&quot;&gt;user_id&lt;/span&gt;" style="ellipse;whiteSpace=wrap;html=1;align=center;" parent="1" vertex="1">
                    <mxGeometry x="-360" y="460" width="100" height="40" as="geometry"/>
                </mxCell>
                <mxCell id="329" value="&lt;span style=&quot;border-bottom: 1px dotted&quot;&gt;dish_id&lt;/span&gt;" style="ellipse;whiteSpace=wrap;html=1;align=center;" parent="1" vertex="1">
                    <mxGeometry x="-280" y="500" width="100" height="40" as="geometry"/>
                </mxCell>
                <mxCell id="330" value="created_at" style="ellipse;whiteSpace=wrap;html=1;align=center;" parent="1" vertex="1">
                    <mxGeometry x="-180" y="450" width="100" height="40" as="geometry"/>
                </mxCell>
                <mxCell id="331" value="" style="endArrow=none;html=1;rounded=0;exitX=0.5;exitY=0;exitDx=0;exitDy=0;entryX=0.5;entryY=1;entryDx=0;entryDy=0;" parent="1" source="328" target="49" edge="1">
                    <mxGeometry relative="1" as="geometry">
                        <mxPoint x="-270" y="500" as="sourcePoint"/>
                        <mxPoint x="-130" y="410" as="targetPoint"/>
                    </mxGeometry>
                </mxCell>
                <mxCell id="332" value="" style="endArrow=none;html=1;rounded=0;exitX=0.5;exitY=0;exitDx=0;exitDy=0;entryX=0.5;entryY=1;entryDx=0;entryDy=0;" parent="1" source="329" target="49" edge="1">
                    <mxGeometry relative="1" as="geometry">
                        <mxPoint x="-300" y="470" as="sourcePoint"/>
                        <mxPoint x="-150" y="400" as="targetPoint"/>
                    </mxGeometry>
                </mxCell>
                <mxCell id="333" value="" style="endArrow=none;html=1;rounded=0;exitX=0;exitY=0;exitDx=0;exitDy=0;entryX=0.5;entryY=1;entryDx=0;entryDy=0;" parent="1" source="330" target="49" edge="1">
                    <mxGeometry relative="1" as="geometry">
                        <mxPoint x="-90" y="450" as="sourcePoint"/>
                        <mxPoint x="-150" y="400" as="targetPoint"/>
                    </mxGeometry>
                </mxCell>
                <mxCell id="335" value="info_id" style="ellipse;whiteSpace=wrap;html=1;align=center;fontStyle=4;" parent="1" vertex="1">
                    <mxGeometry x="475" y="-620" width="100" height="40" as="geometry"/>
                </mxCell>
                <mxCell id="336" value="calories" style="ellipse;whiteSpace=wrap;html=1;align=center;" parent="1" vertex="1">
                    <mxGeometry x="520" y="-720" width="100" height="40" as="geometry"/>
                </mxCell>
                <mxCell id="337" value="&lt;span style=&quot;border-bottom: 1px dotted&quot;&gt;dish_id&lt;/span&gt;" style="ellipse;whiteSpace=wrap;html=1;align=center;" parent="1" vertex="1">
                    <mxGeometry x="490" y="-670" width="100" height="40" as="geometry"/>
                </mxCell>
                <mxCell id="338" value="" style="endArrow=none;html=1;rounded=0;entryX=0.25;entryY=0;entryDx=0;entryDy=0;exitX=1;exitY=1;exitDx=0;exitDy=0;" parent="1" source="335" target="50" edge="1">
                    <mxGeometry relative="1" as="geometry">
                        <mxPoint x="780" y="-675.75" as="sourcePoint"/>
                        <mxPoint x="745.0802126497679" y="-620.0013363889684" as="targetPoint"/>
                    </mxGeometry>
                </mxCell>
                <mxCell id="339" value="" style="endArrow=none;html=1;rounded=0;entryX=0.25;entryY=0;entryDx=0;entryDy=0;exitX=1;exitY=1;exitDx=0;exitDy=0;" parent="1" source="337" target="50" edge="1">
                    <mxGeometry relative="1" as="geometry">
                        <mxPoint x="769.9977132025322" y="-710.0049446867856" as="sourcePoint"/>
                        <mxPoint x="863.5" y="-684.19" as="targetPoint"/>
                    </mxGeometry>
                </mxCell>
                <mxCell id="340" value="protein" style="ellipse;whiteSpace=wrap;html=1;align=center;" parent="1" vertex="1">
                    <mxGeometry x="540" y="-770" width="100" height="40" as="geometry"/>
                </mxCell>
                <mxCell id="341" value="" style="endArrow=none;html=1;rounded=0;entryX=0.25;entryY=0;entryDx=0;entryDy=0;exitX=1;exitY=1;exitDx=0;exitDy=0;" parent="1" source="336" target="50" edge="1">
                    <mxGeometry relative="1" as="geometry">
                        <mxPoint x="649.9977132025151" y="-750.0049446867927" as="sourcePoint"/>
                        <mxPoint x="843.5" y="-664.19" as="targetPoint"/>
                    </mxGeometry>
                </mxCell>
                <mxCell id="342" value="" style="endArrow=none;html=1;rounded=0;entryX=0.25;entryY=0;entryDx=0;entryDy=0;exitX=1;exitY=1;exitDx=0;exitDy=0;" parent="1" source="340" target="50" edge="1">
                    <mxGeometry relative="1" as="geometry">
                        <mxPoint x="665.2477132025238" y="-745.8149446867891" as="sourcePoint"/>
                        <mxPoint x="828.75" y="-610" as="targetPoint"/>
                    </mxGeometry>
                </mxCell>
                <mxCell id="343" value="carbs" style="ellipse;whiteSpace=wrap;html=1;align=center;" parent="1" vertex="1">
                    <mxGeometry x="597.5" y="-820" width="100" height="40" as="geometry"/>
                </mxCell>
                <mxCell id="344" value="" style="endArrow=none;html=1;rounded=0;entryX=0.25;entryY=0;entryDx=0;entryDy=0;exitX=0.5;exitY=1;exitDx=0;exitDy=0;" parent="1" source="343" target="50" edge="1">
                    <mxGeometry relative="1" as="geometry">
                        <mxPoint x="685.2477132025238" y="-795.8149446867893" as="sourcePoint"/>
                        <mxPoint x="828.75" y="-610" as="targetPoint"/>
                    </mxGeometry>
                </mxCell>
                <mxCell id="345" value="fat" style="ellipse;whiteSpace=wrap;html=1;align=center;" parent="1" vertex="1">
                    <mxGeometry x="660" y="-860" width="100" height="40" as="geometry"/>
                </mxCell>
                <mxCell id="346" value="fiber" style="ellipse;whiteSpace=wrap;html=1;align=center;" parent="1" vertex="1">
                    <mxGeometry x="740" y="-810" width="100" height="40" as="geometry"/>
                </mxCell>
                <mxCell id="347" value="created_at" style="ellipse;whiteSpace=wrap;html=1;align=center;" parent="1" vertex="1">
                    <mxGeometry x="770" y="-760" width="100" height="40" as="geometry"/>
                </mxCell>
                <mxCell id="348" value="updated_at" style="ellipse;whiteSpace=wrap;html=1;align=center;" parent="1" vertex="1">
                    <mxGeometry x="797.5" y="-700" width="100" height="40" as="geometry"/>
                </mxCell>
                <mxCell id="349" value="" style="endArrow=none;html=1;rounded=0;entryX=0.25;entryY=0;entryDx=0;entryDy=0;exitX=0.5;exitY=1;exitDx=0;exitDy=0;" parent="1" source="345" target="50" edge="1">
                    <mxGeometry relative="1" as="geometry">
                        <mxPoint x="707.5" y="-840" as="sourcePoint"/>
                        <mxPoint x="828.75" y="-610" as="targetPoint"/>
                    </mxGeometry>
                </mxCell>
                <mxCell id="350" value="" style="endArrow=none;html=1;rounded=0;entryX=0.25;entryY=0;entryDx=0;entryDy=0;exitX=0;exitY=1;exitDx=0;exitDy=0;" parent="1" source="346" target="50" edge="1">
                    <mxGeometry relative="1" as="geometry">
                        <mxPoint x="770" y="-880" as="sourcePoint"/>
                        <mxPoint x="828.75" y="-610" as="targetPoint"/>
                    </mxGeometry>
                </mxCell>
                <mxCell id="351" value="" style="endArrow=none;html=1;rounded=0;exitX=0;exitY=1;exitDx=0;exitDy=0;entryX=0.25;entryY=0;entryDx=0;entryDy=0;" parent="1" source="347" target="50" edge="1">
                    <mxGeometry relative="1" as="geometry">
                        <mxPoint x="814.7993866870884" y="-835.7962437509304" as="sourcePoint"/>
                        <mxPoint x="820" y="-620" as="targetPoint"/>
                    </mxGeometry>
                </mxCell>
                <mxCell id="352" value="" style="endArrow=none;html=1;rounded=0;exitX=0.5;exitY=1;exitDx=0;exitDy=0;entryX=0.25;entryY=0;entryDx=0;entryDy=0;" parent="1" source="348" target="50" edge="1">
                    <mxGeometry relative="1" as="geometry">
                        <mxPoint x="844.7993866870606" y="-785.7962437509192" as="sourcePoint"/>
                        <mxPoint x="831.25" y="-600" as="targetPoint"/>
                    </mxGeometry>
                </mxCell>
                <mxCell id="353" value="attendance_id" style="ellipse;whiteSpace=wrap;html=1;align=center;fontStyle=4;" parent="1" vertex="1">
                    <mxGeometry x="1105" y="1135" width="100" height="40" as="geometry"/>
                </mxCell>
                <mxCell id="354" value="&lt;span style=&quot;border-bottom: 1px dotted&quot;&gt;customer_id&lt;/span&gt;" style="ellipse;whiteSpace=wrap;html=1;align=center;" parent="1" vertex="1">
                    <mxGeometry x="1135" y="1185" width="100" height="40" as="geometry"/>
                </mxCell>
                <mxCell id="355" value="date" style="ellipse;whiteSpace=wrap;html=1;align=center;" parent="1" vertex="1">
                    <mxGeometry x="1165" y="1285" width="100" height="40" as="geometry"/>
                </mxCell>
                <mxCell id="356" value="" style="endArrow=none;html=1;rounded=0;entryX=0.5;entryY=1;entryDx=0;entryDy=0;exitX=1;exitY=0;exitDx=0;exitDy=0;" parent="1" source="353" target="19" edge="1">
                    <mxGeometry relative="1" as="geometry">
                        <mxPoint x="1420" y="1015" as="sourcePoint"/>
                        <mxPoint x="1159.9999999999998" y="895" as="targetPoint"/>
                    </mxGeometry>
                </mxCell>
                <mxCell id="357" value="" style="endArrow=none;html=1;rounded=0;entryX=0.5;entryY=1;entryDx=0;entryDy=0;exitX=1;exitY=0;exitDx=0;exitDy=0;" parent="1" source="354" target="19" edge="1">
                    <mxGeometry relative="1" as="geometry">
                        <mxPoint x="1120.2236631844885" y="930.8053894629675" as="sourcePoint"/>
                        <mxPoint x="1245" y="865" as="targetPoint"/>
                    </mxGeometry>
                </mxCell>
                <mxCell id="358" value="" style="endArrow=none;html=1;rounded=0;entryX=0.5;entryY=1;entryDx=0;entryDy=0;exitX=1;exitY=0;exitDx=0;exitDy=0;" parent="1" source="355" target="19" edge="1">
                    <mxGeometry relative="1" as="geometry">
                        <mxPoint x="1150.223663184488" y="980.805389462967" as="sourcePoint"/>
                        <mxPoint x="1245" y="865" as="targetPoint"/>
                    </mxGeometry>
                </mxCell>
                <mxCell id="359" value="&lt;span style=&quot;border-bottom: 1px dotted&quot;&gt;member_id&lt;/span&gt;" style="ellipse;whiteSpace=wrap;html=1;align=center;" parent="1" vertex="1">
                    <mxGeometry x="1135" y="1235" width="100" height="40" as="geometry"/>
                </mxCell>
                <mxCell id="360" value="" style="endArrow=none;html=1;rounded=0;entryX=0.5;entryY=1;entryDx=0;entryDy=0;exitX=1;exitY=0;exitDx=0;exitDy=0;" parent="1" source="359" target="19" edge="1">
                    <mxGeometry relative="1" as="geometry">
                        <mxPoint x="1180.2236631845026" y="1080.805389462962" as="sourcePoint"/>
                        <mxPoint x="1245" y="865" as="targetPoint"/>
                    </mxGeometry>
                </mxCell>
                <mxCell id="361" value="meal_type" style="ellipse;whiteSpace=wrap;html=1;align=center;" parent="1" vertex="1">
                    <mxGeometry x="1235" y="1325" width="100" height="40" as="geometry"/>
                </mxCell>
                <mxCell id="362" value="status" style="ellipse;whiteSpace=wrap;html=1;align=center;" parent="1" vertex="1">
                    <mxGeometry x="1345" y="1305" width="100" height="40" as="geometry"/>
                </mxCell>
                <mxCell id="363" value="notes" style="ellipse;whiteSpace=wrap;html=1;align=center;" parent="1" vertex="1">
                    <mxGeometry x="1380" y="1255" width="100" height="40" as="geometry"/>
                </mxCell>
                <mxCell id="364" value="created_at" style="ellipse;whiteSpace=wrap;html=1;align=center;" parent="1" vertex="1">
                    <mxGeometry x="1410" y="1205" width="100" height="40" as="geometry"/>
                </mxCell>
                <mxCell id="365" value="updated_at" style="ellipse;whiteSpace=wrap;html=1;align=center;" parent="1" vertex="1">
                    <mxGeometry x="1410" y="1145" width="100" height="40" as="geometry"/>
                </mxCell>
                <mxCell id="366" value="" style="endArrow=none;html=1;rounded=0;entryX=0.5;entryY=1;entryDx=0;entryDy=0;exitX=0.5;exitY=0;exitDx=0;exitDy=0;" parent="1" source="361" target="19" edge="1">
                    <mxGeometry relative="1" as="geometry">
                        <mxPoint x="1180.2006133129394" y="1080.796243750919" as="sourcePoint"/>
                        <mxPoint x="1245" y="865" as="targetPoint"/>
                    </mxGeometry>
                </mxCell>
                <mxCell id="367" value="" style="endArrow=none;html=1;rounded=0;entryX=0.5;entryY=1;entryDx=0;entryDy=0;exitX=0;exitY=0;exitDx=0;exitDy=0;" parent="1" source="362" target="19" edge="1">
                    <mxGeometry relative="1" as="geometry">
                        <mxPoint x="1215" y="1115" as="sourcePoint"/>
                        <mxPoint x="1245" y="865" as="targetPoint"/>
                    </mxGeometry>
                </mxCell>
                <mxCell id="369" value="" style="endArrow=none;html=1;rounded=0;entryX=0.5;entryY=1;entryDx=0;entryDy=0;exitX=0;exitY=0;exitDx=0;exitDy=0;" parent="1" source="363" target="19" edge="1">
                    <mxGeometry relative="1" as="geometry">
                        <mxPoint x="1294.7993866870975" y="1120.7962437509336" as="sourcePoint"/>
                        <mxPoint x="1245" y="865" as="targetPoint"/>
                    </mxGeometry>
                </mxCell>
                <mxCell id="370" value="" style="endArrow=none;html=1;rounded=0;entryX=0.5;entryY=1;entryDx=0;entryDy=0;exitX=0;exitY=0;exitDx=0;exitDy=0;" parent="1" source="364" target="19" edge="1">
                    <mxGeometry relative="1" as="geometry">
                        <mxPoint x="1329.7993866870975" y="1070.796243750934" as="sourcePoint"/>
                        <mxPoint x="1245" y="865" as="targetPoint"/>
                    </mxGeometry>
                </mxCell>
                <mxCell id="371" value="" style="endArrow=none;html=1;rounded=0;entryX=0.5;entryY=1;entryDx=0;entryDy=0;exitX=0;exitY=0;exitDx=0;exitDy=0;" parent="1" source="365" target="19" edge="1">
                    <mxGeometry relative="1" as="geometry">
                        <mxPoint x="1359.7993866870793" y="1020.7962437509264" as="sourcePoint"/>
                        <mxPoint x="1245" y="865" as="targetPoint"/>
                    </mxGeometry>
                </mxCell>
                <mxCell id="373" value="&lt;span style=&quot;border-bottom: 1px dotted&quot;&gt;customer_id&lt;/span&gt;" style="ellipse;whiteSpace=wrap;html=1;align=center;" vertex="1" parent="1">
                    <mxGeometry x="770" y="600" width="100" height="40" as="geometry"/>
                </mxCell>
                <mxCell id="374" value="rating" style="ellipse;whiteSpace=wrap;html=1;align=center;" vertex="1" parent="1">
                    <mxGeometry x="740" y="790" width="100" height="40" as="geometry"/>
                </mxCell>
                <mxCell id="375" value="" style="endArrow=none;html=1;rounded=0;entryX=0.5;entryY=1;entryDx=0;entryDy=0;exitX=1;exitY=0;exitDx=0;exitDy=0;" edge="1" parent="1" source="372" target="8">
                    <mxGeometry relative="1" as="geometry">
                        <mxPoint x="969.9953390593274" y="469.9978643762689" as="sourcePoint"/>
                        <mxPoint x="1094.6399999999999" y="404.14" as="targetPoint"/>
                    </mxGeometry>
                </mxCell>
                <mxCell id="376" value="" style="endArrow=none;html=1;rounded=0;entryX=0.5;entryY=1;entryDx=0;entryDy=0;exitX=1;exitY=0;exitDx=0;exitDy=0;" edge="1" parent="1" source="373" target="8">
                    <mxGeometry relative="1" as="geometry">
                        <mxPoint x="825.3553390593274" y="575.8578643762689" as="sourcePoint"/>
                        <mxPoint x="1090" y="400" as="targetPoint"/>
                    </mxGeometry>
                </mxCell>
                <mxCell id="377" value="" style="endArrow=none;html=1;rounded=0;entryX=0.5;entryY=1;entryDx=0;entryDy=0;exitX=0.5;exitY=0;exitDx=0;exitDy=0;" edge="1" parent="1" source="374" target="8">
                    <mxGeometry relative="1" as="geometry">
                        <mxPoint x="870" y="610" as="sourcePoint"/>
                        <mxPoint x="1090" y="390" as="targetPoint"/>
                    </mxGeometry>
                </mxCell>
                <mxCell id="378" value="feedack_type" style="ellipse;whiteSpace=wrap;html=1;align=center;" vertex="1" parent="1">
                    <mxGeometry x="820" y="760" width="100" height="40" as="geometry"/>
                </mxCell>
                <mxCell id="379" value="&lt;span style=&quot;border-bottom: 1px dotted&quot;&gt;member_id&lt;/span&gt;" style="ellipse;whiteSpace=wrap;html=1;align=center;" vertex="1" parent="1">
                    <mxGeometry x="697.5" y="740" width="100" height="40" as="geometry"/>
                </mxCell>
                <mxCell id="380" value="" style="endArrow=none;html=1;rounded=0;entryX=0.5;entryY=1;entryDx=0;entryDy=0;exitX=1;exitY=0;exitDx=0;exitDy=0;" edge="1" parent="1" source="379" target="8">
                    <mxGeometry relative="1" as="geometry">
                        <mxPoint x="865.3553390593415" y="615.8578643762635" as="sourcePoint"/>
                        <mxPoint x="1090" y="390" as="targetPoint"/>
                    </mxGeometry>
                </mxCell>
                <mxCell id="381" value="" style="endArrow=none;html=1;rounded=0;entryX=0.5;entryY=1;entryDx=0;entryDy=0;exitX=0.5;exitY=0;exitDx=0;exitDy=0;" edge="1" parent="1" source="378" target="8">
                    <mxGeometry relative="1" as="geometry">
                        <mxPoint x="990" y="680" as="sourcePoint"/>
                        <mxPoint x="1090" y="390" as="targetPoint"/>
                    </mxGeometry>
                </mxCell>
                <mxCell id="382" value="comment" style="ellipse;whiteSpace=wrap;html=1;align=center;" vertex="1" parent="1">
                    <mxGeometry x="840" y="820" width="100" height="40" as="geometry"/>
                </mxCell>
                <mxCell id="383" value="" style="endArrow=none;html=1;rounded=0;entryX=0.5;entryY=1;entryDx=0;entryDy=0;exitX=1;exitY=0;exitDx=0;exitDy=0;" edge="1" parent="1" source="382" target="8">
                    <mxGeometry relative="1" as="geometry">
                        <mxPoint x="1070" y="640" as="sourcePoint"/>
                        <mxPoint x="1090" y="390" as="targetPoint"/>
                    </mxGeometry>
                </mxCell>
                <mxCell id="384" value="is_anonymous" style="ellipse;whiteSpace=wrap;html=1;align=center;" vertex="1" parent="1">
                    <mxGeometry x="910" y="860" width="100" height="40" as="geometry"/>
                </mxCell>
                <mxCell id="385" value="" style="endArrow=none;html=1;rounded=0;exitX=0.5;exitY=0;exitDx=0;exitDy=0;entryX=0.5;entryY=1;entryDx=0;entryDy=0;" edge="1" parent="1" source="384" target="8">
                    <mxGeometry relative="1" as="geometry">
                        <mxPoint x="1130" y="680" as="sourcePoint"/>
                        <mxPoint x="1090" y="390" as="targetPoint"/>
                    </mxGeometry>
                </mxCell>
                <mxCell id="386" value="is_resolved" style="ellipse;whiteSpace=wrap;html=1;align=center;" vertex="1" parent="1">
                    <mxGeometry x="990" y="820" width="80" height="40" as="geometry"/>
                </mxCell>
                <mxCell id="389" value="" style="endArrow=none;html=1;rounded=0;exitX=0;exitY=0;exitDx=0;exitDy=0;entryX=0.5;entryY=1;entryDx=0;entryDy=0;" edge="1" parent="1" source="386" target="8">
                    <mxGeometry relative="1" as="geometry">
                        <mxPoint x="1104.8544793961714" y="765.7744321365462" as="sourcePoint"/>
                        <mxPoint x="1089.9999999999995" y="390" as="targetPoint"/>
                    </mxGeometry>
                </mxCell>
                <mxCell id="390" value="" style="endArrow=none;html=1;rounded=0;exitX=1;exitY=0;exitDx=0;exitDy=0;entryX=0.5;entryY=1;entryDx=0;entryDy=0;" edge="1" parent="1" source="391" target="8">
                    <mxGeometry relative="1" as="geometry">
                        <mxPoint x="1204.8544793961437" y="745.7744321365344" as="sourcePoint"/>
                        <mxPoint x="1089.9999999999995" y="390" as="targetPoint"/>
                    </mxGeometry>
                </mxCell>
                <mxCell id="391" value="&lt;span style=&quot;border-bottom: 1px dotted&quot;&gt;resolved_by&lt;/span&gt;" style="ellipse;whiteSpace=wrap;html=1;align=center;" vertex="1" parent="1">
                    <mxGeometry x="1010" y="870" width="100" height="40" as="geometry"/>
                </mxCell>
                <mxCell id="392" value="resolved_at" style="ellipse;whiteSpace=wrap;html=1;align=center;" vertex="1" parent="1">
                    <mxGeometry x="1065" y="910" width="80" height="40" as="geometry"/>
                </mxCell>
                <mxCell id="393" value="" style="endArrow=none;html=1;rounded=0;exitX=1;exitY=0;exitDx=0;exitDy=0;entryX=0.5;entryY=1;entryDx=0;entryDy=0;" edge="1" parent="1" source="392" target="8">
                    <mxGeometry relative="1" as="geometry">
                        <mxPoint x="1199.6446609406726" y="885.8578643762689" as="sourcePoint"/>
                        <mxPoint x="1090" y="390" as="targetPoint"/>
                    </mxGeometry>
                </mxCell>
                <mxCell id="394" value="resolution_comment" style="ellipse;whiteSpace=wrap;html=1;align=center;" vertex="1" parent="1">
                    <mxGeometry x="1150" y="880" width="135" height="40" as="geometry"/>
                </mxCell>
                <mxCell id="372" value="feedback_id" style="ellipse;whiteSpace=wrap;html=1;align=center;fontStyle=4;" vertex="1" parent="1">
                    <mxGeometry x="810" y="550" width="90" height="40" as="geometry"/>
                </mxCell>
                <mxCell id="396" value="" style="endArrow=none;html=1;rounded=0;exitX=0;exitY=0;exitDx=0;exitDy=0;entryX=0.5;entryY=1;entryDx=0;entryDy=0;" edge="1" parent="1" source="394" target="8">
                    <mxGeometry relative="1" as="geometry">
                        <mxPoint x="1143.2842712474799" y="925.8578643762603" as="sourcePoint"/>
                        <mxPoint x="1114.9999999999995" y="450" as="targetPoint"/>
                    </mxGeometry>
                </mxCell>
                <mxCell id="397" value="created_at" style="ellipse;whiteSpace=wrap;html=1;align=center;" vertex="1" parent="1">
                    <mxGeometry x="1190" y="820" width="80" height="40" as="geometry"/>
                </mxCell>
                <mxCell id="398" value="updated_at" style="ellipse;whiteSpace=wrap;html=1;align=center;" vertex="1" parent="1">
                    <mxGeometry x="1215" y="760" width="80" height="40" as="geometry"/>
                </mxCell>
                <mxCell id="399" value="" style="endArrow=none;html=1;rounded=0;exitX=0;exitY=0;exitDx=0;exitDy=0;entryX=0.5;entryY=1;entryDx=0;entryDy=0;" edge="1" parent="1" source="397" target="8">
                    <mxGeometry relative="1" as="geometry">
                        <mxPoint x="1179.9270388141172" y="895.8115729796491" as="sourcePoint"/>
                        <mxPoint x="1114.9999999999995" y="450" as="targetPoint"/>
                    </mxGeometry>
                </mxCell>
                <mxCell id="400" value="" style="endArrow=none;html=1;rounded=0;exitX=0;exitY=0;exitDx=0;exitDy=0;entryX=0.5;entryY=1;entryDx=0;entryDy=0;" edge="1" parent="1" source="398" target="8">
                    <mxGeometry relative="1" as="geometry">
                        <mxPoint x="1211.7157287525201" y="835.8578643762603" as="sourcePoint"/>
                        <mxPoint x="1114.9999999999995" y="450" as="targetPoint"/>
                    </mxGeometry>
                </mxCell>
                <mxCell id="401" value="log_id" style="ellipse;whiteSpace=wrap;html=1;align=center;fontStyle=4;" vertex="1" parent="1">
                    <mxGeometry x="1425" y="740" width="55" height="30" as="geometry"/>
                </mxCell>
                <mxCell id="402" value="" style="endArrow=none;html=1;rounded=0;exitX=0.5;exitY=1;exitDx=0;exitDy=0;entryX=1;entryY=0;entryDx=0;entryDy=0;" edge="1" parent="1" source="12" target="401">
                    <mxGeometry relative="1" as="geometry">
                        <mxPoint x="1885" y="750" as="sourcePoint"/>
                        <mxPoint x="1845" y="965" as="targetPoint"/>
                    </mxGeometry>
                </mxCell>
                <mxCell id="403" value="&lt;span style=&quot;border-bottom: 1px dotted&quot;&gt;user_id&lt;/span&gt;" style="ellipse;whiteSpace=wrap;html=1;align=center;" vertex="1" parent="1">
                    <mxGeometry x="1430" y="780" width="65" height="30" as="geometry"/>
                </mxCell>
                <mxCell id="404" value="action" style="ellipse;whiteSpace=wrap;html=1;align=center;" vertex="1" parent="1">
                    <mxGeometry x="1460" y="815" width="60" height="30" as="geometry"/>
                </mxCell>
                <mxCell id="405" value="entity_type" style="ellipse;whiteSpace=wrap;html=1;align=center;" vertex="1" parent="1">
                    <mxGeometry x="1465" y="855" width="75" height="30" as="geometry"/>
                </mxCell>
                <mxCell id="406" value="entity_id" style="ellipse;whiteSpace=wrap;html=1;align=center;" vertex="1" parent="1">
                    <mxGeometry x="1517.5" y="890" width="75" height="30" as="geometry"/>
                </mxCell>
                <mxCell id="407" value="details" style="ellipse;whiteSpace=wrap;html=1;align=center;" vertex="1" parent="1">
                    <mxGeometry x="1595" y="875" width="75" height="30" as="geometry"/>
                </mxCell>
                <mxCell id="408" value="ip_address" style="ellipse;whiteSpace=wrap;html=1;align=center;" vertex="1" parent="1">
                    <mxGeometry x="1610" y="830" width="75" height="30" as="geometry"/>
                </mxCell>
                <mxCell id="409" value="user_agent" style="ellipse;whiteSpace=wrap;html=1;align=center;" vertex="1" parent="1">
                    <mxGeometry x="1620" y="790" width="75" height="30" as="geometry"/>
                </mxCell>
                <mxCell id="410" value="created_at" style="ellipse;whiteSpace=wrap;html=1;align=center;" vertex="1" parent="1">
                    <mxGeometry x="1632.5" y="750" width="75" height="30" as="geometry"/>
                </mxCell>
                <mxCell id="411" value="" style="endArrow=none;html=1;rounded=0;exitX=0.5;exitY=1;exitDx=0;exitDy=0;entryX=1;entryY=0;entryDx=0;entryDy=0;" edge="1" parent="1" source="12" target="403">
                    <mxGeometry relative="1" as="geometry">
                        <mxPoint x="1565" y="700" as="sourcePoint"/>
                        <mxPoint x="1481.817929513381" y="754.3243021110266" as="targetPoint"/>
                    </mxGeometry>
                </mxCell>
                <mxCell id="412" value="" style="endArrow=none;html=1;rounded=0;exitX=0.5;exitY=1;exitDx=0;exitDy=0;entryX=1;entryY=0;entryDx=0;entryDy=0;" edge="1" parent="1" source="12" target="404">
                    <mxGeometry relative="1" as="geometry">
                        <mxPoint x="1565" y="700" as="sourcePoint"/>
                        <mxPoint x="1495.3536549103824" y="794.3349610418213" as="targetPoint"/>
                    </mxGeometry>
                </mxCell>
                <mxCell id="413" value="" style="endArrow=none;html=1;rounded=0;exitX=0.5;exitY=1;exitDx=0;exitDy=0;entryX=1;entryY=0;entryDx=0;entryDy=0;" edge="1" parent="1" source="12" target="405">
                    <mxGeometry relative="1" as="geometry">
                        <mxPoint x="1565" y="700" as="sourcePoint"/>
                        <mxPoint x="1521.213203435596" y="829.3933982822023" as="targetPoint"/>
                    </mxGeometry>
                </mxCell>
                <mxCell id="414" value="" style="endArrow=none;html=1;rounded=0;exitX=0.5;exitY=1;exitDx=0;exitDy=0;entryX=0.5;entryY=0;entryDx=0;entryDy=0;" edge="1" parent="1" source="12" target="406">
                    <mxGeometry relative="1" as="geometry">
                        <mxPoint x="1565" y="700" as="sourcePoint"/>
                        <mxPoint x="1538.8893290012343" y="869.3427709802709" as="targetPoint"/>
                    </mxGeometry>
                </mxCell>
                <mxCell id="415" value="" style="endArrow=none;html=1;rounded=0;exitX=0.5;exitY=1;exitDx=0;exitDy=0;entryX=0;entryY=0;entryDx=0;entryDy=0;" edge="1" parent="1" source="12" target="407">
                    <mxGeometry relative="1" as="geometry">
                        <mxPoint x="1565" y="700" as="sourcePoint"/>
                        <mxPoint x="1568.8893290012347" y="904.3427709802709" as="targetPoint"/>
                    </mxGeometry>
                </mxCell>
                <mxCell id="416" value="" style="endArrow=none;html=1;rounded=0;exitX=0.5;exitY=1;exitDx=0;exitDy=0;entryX=0;entryY=0;entryDx=0;entryDy=0;" edge="1" parent="1" source="12" target="408">
                    <mxGeometry relative="1" as="geometry">
                        <mxPoint x="1565" y="700" as="sourcePoint"/>
                        <mxPoint x="1593.8893290012106" y="939.3427709802804" as="targetPoint"/>
                    </mxGeometry>
                </mxCell>
                <mxCell id="417" value="" style="endArrow=none;html=1;rounded=0;exitX=0.5;exitY=1;exitDx=0;exitDy=0;entryX=0;entryY=0;entryDx=0;entryDy=0;" edge="1" parent="1" source="12" target="409">
                    <mxGeometry relative="1" as="geometry">
                        <mxPoint x="1565" y="700" as="sourcePoint"/>
                        <mxPoint x="1623.8893290012106" y="979.3427709802804" as="targetPoint"/>
                    </mxGeometry>
                </mxCell>
                <mxCell id="418" value="" style="endArrow=none;html=1;rounded=0;exitX=0.5;exitY=1;exitDx=0;exitDy=0;entryX=0;entryY=0;entryDx=0;entryDy=0;" edge="1" parent="1" source="12" target="410">
                    <mxGeometry relative="1" as="geometry">
                        <mxPoint x="1565" y="700" as="sourcePoint"/>
                        <mxPoint x="1657.5" y="1010" as="targetPoint"/>
                    </mxGeometry>
                </mxCell>
                <mxCell id="419" value="admin_id" style="ellipse;whiteSpace=wrap;html=1;align=center;fontStyle=4;" vertex="1" parent="1">
                    <mxGeometry x="1805" y="630" width="70" height="30" as="geometry"/>
                </mxCell>
                <mxCell id="421" value="admin_email" style="ellipse;whiteSpace=wrap;html=1;align=center;" vertex="1" parent="1">
                    <mxGeometry x="2020" y="590" width="85" height="30" as="geometry"/>
                </mxCell>
                <mxCell id="422" value="admin_password_hash" style="ellipse;whiteSpace=wrap;html=1;align=center;" vertex="1" parent="1">
                    <mxGeometry x="2045" y="529" width="160" height="42.5" as="geometry"/>
                </mxCell>
                <mxCell id="423" value="" style="endArrow=none;html=1;rounded=0;exitX=1;exitY=0.5;exitDx=0;exitDy=0;entryX=0;entryY=0;entryDx=0;entryDy=0;" edge="1" parent="1" source="52" target="419">
                    <mxGeometry relative="1" as="geometry">
                        <mxPoint x="1565" y="700" as="sourcePoint"/>
                        <mxPoint x="1653.6620519852245" y="764.3224535075233" as="targetPoint"/>
                    </mxGeometry>
                </mxCell>
                <mxCell id="424" value="" style="endArrow=none;html=1;rounded=0;exitX=1;exitY=0.5;exitDx=0;exitDy=0;entryX=0.5;entryY=0;entryDx=0;entryDy=0;" edge="1" parent="1" source="52" target="427">
                    <mxGeometry relative="1" as="geometry">
                        <mxPoint x="1780" y="570" as="sourcePoint"/>
                        <mxPoint x="1864.3777861206008" y="604.4589907314503" as="targetPoint"/>
                    </mxGeometry>
                </mxCell>
                <mxCell id="425" value="" style="endArrow=none;html=1;rounded=0;exitX=1;exitY=0.5;exitDx=0;exitDy=0;entryX=0;entryY=0;entryDx=0;entryDy=0;" edge="1" parent="1" source="52" target="421">
                    <mxGeometry relative="1" as="geometry">
                        <mxPoint x="1780" y="570" as="sourcePoint"/>
                        <mxPoint x="1874.6978617776572" y="614.3114977082769" as="targetPoint"/>
                    </mxGeometry>
                </mxCell>
                <mxCell id="426" value="" style="endArrow=none;html=1;rounded=0;exitX=1;exitY=0.5;exitDx=0;exitDy=0;entryX=0;entryY=1;entryDx=0;entryDy=0;" edge="1" parent="1" source="52" target="422">
                    <mxGeometry relative="1" as="geometry">
                        <mxPoint x="1780" y="570" as="sourcePoint"/>
                        <mxPoint x="1951.2867965644036" y="604.3933982822018" as="targetPoint"/>
                    </mxGeometry>
                </mxCell>
                <mxCell id="427" value="admin_username" style="ellipse;whiteSpace=wrap;html=1;align=center;" vertex="1" parent="1">
                    <mxGeometry x="1900" y="630" width="140" height="40" as="geometry"/>
                </mxCell>
                <mxCell id="428" value="admin_created_at" style="ellipse;whiteSpace=wrap;html=1;align=center;" vertex="1" parent="1">
                    <mxGeometry x="2025" y="477.5" width="125" height="42.5" as="geometry"/>
                </mxCell>
                <mxCell id="429" value="" style="endArrow=none;html=1;rounded=0;exitX=1;exitY=0.5;exitDx=0;exitDy=0;entryX=0;entryY=0.5;entryDx=0;entryDy=0;" edge="1" parent="1" source="52" target="428">
                    <mxGeometry relative="1" as="geometry">
                        <mxPoint x="1780" y="570" as="sourcePoint"/>
                        <mxPoint x="2052.874172868434" y="666.3734825178212" as="targetPoint"/>
                    </mxGeometry>
                </mxCell>
                <mxCell id="431" value="membership_id" style="ellipse;whiteSpace=wrap;html=1;align=center;fontStyle=4;" vertex="1" parent="1">
                    <mxGeometry x="520" y="1060" width="100" height="40" as="geometry"/>
                </mxCell>
                <mxCell id="432" value="member_id" style="ellipse;whiteSpace=wrap;html=1;align=center;" vertex="1" parent="1">
                    <mxGeometry x="542.5" y="1115" width="100" height="40" as="geometry"/>
                </mxCell>
                <mxCell id="433" value="membership_type" style="ellipse;whiteSpace=wrap;html=1;align=center;" vertex="1" parent="1">
                    <mxGeometry x="550" y="1165" width="120" height="40" as="geometry"/>
                </mxCell>
                <mxCell id="434" value="" style="endArrow=none;html=1;rounded=0;entryX=0.5;entryY=1;entryDx=0;entryDy=0;exitX=1;exitY=0;exitDx=0;exitDy=0;" edge="1" parent="1" source="431" target="18">
                    <mxGeometry relative="1" as="geometry">
                        <mxPoint x="635.1455206038559" y="1075.7744321365349" as="sourcePoint"/>
                        <mxPoint x="774.9999999999995" y="1010" as="targetPoint"/>
                    </mxGeometry>
                </mxCell>
                <mxCell id="435" value="" style="endArrow=none;html=1;rounded=0;entryX=0.5;entryY=1;entryDx=0;entryDy=0;exitX=1;exitY=0;exitDx=0;exitDy=0;" edge="1" parent="1" source="432" target="18">
                    <mxGeometry relative="1" as="geometry">
                        <mxPoint x="615.1455206038136" y="1075.7744321365512" as="sourcePoint"/>
                        <mxPoint x="759.9999999999995" y="990" as="targetPoint"/>
                    </mxGeometry>
                </mxCell>
                <mxCell id="436" value="" style="endArrow=none;html=1;rounded=0;entryX=0.5;entryY=1;entryDx=0;entryDy=0;exitX=1;exitY=0;exitDx=0;exitDy=0;" edge="1" parent="1" source="433" target="18">
                    <mxGeometry relative="1" as="geometry">
                        <mxPoint x="637.6455206038422" y="1130.7744321365403" as="sourcePoint"/>
                        <mxPoint x="759.9999999999995" y="990" as="targetPoint"/>
                    </mxGeometry>
                </mxCell>
                <mxCell id="437" value="start_date" style="ellipse;whiteSpace=wrap;html=1;align=center;" vertex="1" parent="1">
                    <mxGeometry x="640" y="1205" width="100" height="40" as="geometry"/>
                </mxCell>
                <mxCell id="438" value="end_date" style="ellipse;whiteSpace=wrap;html=1;align=center;" vertex="1" parent="1">
                    <mxGeometry x="750" y="1200" width="100" height="40" as="geometry"/>
                </mxCell>
                <mxCell id="439" value="status" style="ellipse;whiteSpace=wrap;html=1;align=center;" vertex="1" parent="1">
                    <mxGeometry x="825" y="1155" width="100" height="40" as="geometry"/>
                </mxCell>
                <mxCell id="440" value="created_at" style="ellipse;whiteSpace=wrap;html=1;align=center;" vertex="1" parent="1">
                    <mxGeometry x="860" y="1105" width="100" height="40" as="geometry"/>
                </mxCell>
                <mxCell id="441" value="updated_at" style="ellipse;whiteSpace=wrap;html=1;align=center;" vertex="1" parent="1">
                    <mxGeometry x="850" y="1030" width="100" height="40" as="geometry"/>
                </mxCell>
                <mxCell id="442" value="" style="endArrow=none;html=1;rounded=0;entryX=0.5;entryY=1;entryDx=0;entryDy=0;exitX=1;exitY=0;exitDx=0;exitDy=0;" edge="1" parent="1" source="437" target="18">
                    <mxGeometry relative="1" as="geometry">
                        <mxPoint x="662.4264068711809" y="1180.857864376273" as="sourcePoint"/>
                        <mxPoint x="759.9999999999995" y="990" as="targetPoint"/>
                    </mxGeometry>
                </mxCell>
                <mxCell id="443" value="" style="endArrow=none;html=1;rounded=0;entryX=0.5;entryY=1;entryDx=0;entryDy=0;exitX=0.5;exitY=0;exitDx=0;exitDy=0;" edge="1" parent="1" source="438" target="18">
                    <mxGeometry relative="1" as="geometry">
                        <mxPoint x="735.1455206038422" y="1220.7744321365399" as="sourcePoint"/>
                        <mxPoint x="759.9999999999995" y="990" as="targetPoint"/>
                    </mxGeometry>
                </mxCell>
                <mxCell id="444" value="" style="endArrow=none;html=1;rounded=0;entryX=0.5;entryY=1;entryDx=0;entryDy=0;exitX=0;exitY=0;exitDx=0;exitDy=0;" edge="1" parent="1" source="439" target="18">
                    <mxGeometry relative="1" as="geometry">
                        <mxPoint x="779.9999999999995" y="1250" as="sourcePoint"/>
                        <mxPoint x="759.9999999999995" y="990" as="targetPoint"/>
                    </mxGeometry>
                </mxCell>
                <mxCell id="445" value="" style="endArrow=none;html=1;rounded=0;entryX=0.5;entryY=1;entryDx=0;entryDy=0;exitX=0;exitY=0;exitDx=0;exitDy=0;" edge="1" parent="1" source="440" target="18">
                    <mxGeometry relative="1" as="geometry">
                        <mxPoint x="864.8544793961723" y="1255.7744321365462" as="sourcePoint"/>
                        <mxPoint x="759.9999999999995" y="990" as="targetPoint"/>
                    </mxGeometry>
                </mxCell>
                <mxCell id="446" value="" style="endArrow=none;html=1;rounded=0;entryX=0.591;entryY=1.071;entryDx=0;entryDy=0;exitX=0;exitY=0;exitDx=0;exitDy=0;entryPerimeter=0;" edge="1" parent="1" source="441" target="18">
                    <mxGeometry relative="1" as="geometry">
                        <mxPoint x="914.8544793961855" y="1210.7744321365512" as="sourcePoint"/>
                        <mxPoint x="759.9999999999995" y="990" as="targetPoint"/>
                    </mxGeometry>
                </mxCell>
                <mxCell id="447" value="notification_id" style="ellipse;whiteSpace=wrap;html=1;align=center;fontStyle=4;" vertex="1" parent="1">
                    <mxGeometry x="1885" y="-60" width="100" height="40" as="geometry"/>
                </mxCell>
                <mxCell id="448" value="&lt;span style=&quot;border-bottom: 1px dotted&quot;&gt;user_id&lt;/span&gt;" style="ellipse;whiteSpace=wrap;html=1;align=center;" vertex="1" parent="1">
                    <mxGeometry x="2000" y="-50" width="100" height="40" as="geometry"/>
                </mxCell>
                <mxCell id="449" value="" style="endArrow=none;html=1;rounded=0;entryX=0;entryY=1;entryDx=0;entryDy=0;exitX=1;exitY=0.5;exitDx=0;exitDy=0;" edge="1" parent="1" source="13" target="447">
                    <mxGeometry relative="1" as="geometry">
                        <mxPoint x="1870" y="90" as="sourcePoint"/>
                        <mxPoint x="2162.2993866870793" y="4.203756249073194" as="targetPoint"/>
                    </mxGeometry>
                </mxCell>
                <mxCell id="450" value="" style="endArrow=none;html=1;rounded=0;entryX=0;entryY=1;entryDx=0;entryDy=0;exitX=1;exitY=0.5;exitDx=0;exitDy=0;" edge="1" parent="1" source="13" target="448">
                    <mxGeometry relative="1" as="geometry">
                        <mxPoint x="1877.5" y="30" as="sourcePoint"/>
                        <mxPoint x="1909.7993866871157" y="-15.796243750941358" as="targetPoint"/>
                    </mxGeometry>
                </mxCell>
                <mxCell id="451" value="title" style="ellipse;whiteSpace=wrap;html=1;align=center;" vertex="1" parent="1">
                    <mxGeometry x="2130" y="-10" width="50" height="30" as="geometry"/>
                </mxCell>
                <mxCell id="452" value="message" style="ellipse;whiteSpace=wrap;html=1;align=center;" vertex="1" parent="1">
                    <mxGeometry x="2105" y="30" width="77.5" height="30" as="geometry"/>
                </mxCell>
                <mxCell id="453" value="is_read" style="ellipse;whiteSpace=wrap;html=1;align=center;" vertex="1" parent="1">
                    <mxGeometry x="2116.25" y="70" width="77.5" height="30" as="geometry"/>
                </mxCell>
                <mxCell id="454" value="created_at" style="ellipse;whiteSpace=wrap;html=1;align=center;" vertex="1" parent="1">
                    <mxGeometry x="2080" y="110" width="77.5" height="30" as="geometry"/>
                </mxCell>
                <mxCell id="455" value="updated_at" style="ellipse;whiteSpace=wrap;html=1;align=center;" vertex="1" parent="1">
                    <mxGeometry x="1985" y="130" width="77.5" height="30" as="geometry"/>
                </mxCell>
                <mxCell id="456" value="" style="endArrow=none;html=1;rounded=0;exitX=1;exitY=0.5;exitDx=0;exitDy=0;entryX=0;entryY=0.5;entryDx=0;entryDy=0;" edge="1" parent="1" source="13" target="451">
                    <mxGeometry relative="1" as="geometry">
                        <mxPoint x="1877.5" y="30" as="sourcePoint"/>
                        <mxPoint x="2040" y="30" as="targetPoint"/>
                    </mxGeometry>
                </mxCell>
                <mxCell id="457" value="" style="endArrow=none;html=1;rounded=0;exitX=1;exitY=0.5;exitDx=0;exitDy=0;entryX=0;entryY=0;entryDx=0;entryDy=0;" edge="1" parent="1" source="13" target="452">
                    <mxGeometry relative="1" as="geometry">
                        <mxPoint x="1877.5" y="30" as="sourcePoint"/>
                        <mxPoint x="2140.000000000042" y="15" as="targetPoint"/>
                    </mxGeometry>
                </mxCell>
                <mxCell id="458" value="" style="endArrow=none;html=1;rounded=0;exitX=1;exitY=0.5;exitDx=0;exitDy=0;entryX=0;entryY=0;entryDx=0;entryDy=0;" edge="1" parent="1" source="13" target="453">
                    <mxGeometry relative="1" as="geometry">
                        <mxPoint x="1877.5" y="30" as="sourcePoint"/>
                        <mxPoint x="2126.323652618127" y="44.40345669336739" as="targetPoint"/>
                    </mxGeometry>
                </mxCell>
                <mxCell id="459" value="" style="endArrow=none;html=1;rounded=0;exitX=1;exitY=0.5;exitDx=0;exitDy=0;entryX=0.5;entryY=0;entryDx=0;entryDy=0;" edge="1" parent="1" source="13" target="454">
                    <mxGeometry relative="1" as="geometry">
                        <mxPoint x="1877.5" y="30" as="sourcePoint"/>
                        <mxPoint x="2137.5736526181654" y="84.40345669338194" as="targetPoint"/>
                    </mxGeometry>
                </mxCell>
                <mxCell id="460" value="" style="endArrow=none;html=1;rounded=0;exitX=1;exitY=0.5;exitDx=0;exitDy=0;entryX=0.5;entryY=0;entryDx=0;entryDy=0;" edge="1" parent="1" source="13" target="455">
                    <mxGeometry relative="1" as="geometry">
                        <mxPoint x="1877.5" y="30" as="sourcePoint"/>
                        <mxPoint x="2128.75" y="120" as="targetPoint"/>
                    </mxGeometry>
                </mxCell>
                <mxCell id="461" value="system_id" style="ellipse;whiteSpace=wrap;html=1;align=center;fontStyle=4;" vertex="1" parent="1">
                    <mxGeometry x="1805" y="-240" width="100" height="40" as="geometry"/>
                </mxCell>
                <mxCell id="462" value="settings_key" style="ellipse;whiteSpace=wrap;html=1;align=center;" vertex="1" parent="1">
                    <mxGeometry x="1820" y="-190" width="85" height="30" as="geometry"/>
                </mxCell>
                <mxCell id="463" value="setting_value" style="ellipse;whiteSpace=wrap;html=1;align=center;" vertex="1" parent="1">
                    <mxGeometry x="1830" y="-150" width="85" height="30" as="geometry"/>
                </mxCell>
                <mxCell id="464" value="description" style="ellipse;whiteSpace=wrap;html=1;align=center;" vertex="1" parent="1">
                    <mxGeometry x="1875" y="-115" width="85" height="30" as="geometry"/>
                </mxCell>
                <mxCell id="465" value="created_at" style="ellipse;whiteSpace=wrap;html=1;align=center;" vertex="1" parent="1">
                    <mxGeometry x="1965" y="-160" width="85" height="30" as="geometry"/>
                </mxCell>
                <mxCell id="466" value="updated_at" style="ellipse;whiteSpace=wrap;html=1;align=center;" vertex="1" parent="1">
                    <mxGeometry x="2000" y="-210" width="85" height="30" as="geometry"/>
                </mxCell>
                <mxCell id="467" value="" style="endArrow=none;html=1;rounded=0;entryX=0.5;entryY=1;entryDx=0;entryDy=0;exitX=1;exitY=0.5;exitDx=0;exitDy=0;" edge="1" parent="1" source="461" target="14">
                    <mxGeometry relative="1" as="geometry">
                        <mxPoint x="1260" y="269.9999999999998" as="sourcePoint"/>
                        <mxPoint x="1554.7993866870793" y="184.2037562490732" as="targetPoint"/>
                    </mxGeometry>
                </mxCell>
                <mxCell id="468" value="" style="endArrow=none;html=1;rounded=0;entryX=0.5;entryY=1;entryDx=0;entryDy=0;exitX=1;exitY=0;exitDx=0;exitDy=0;" edge="1" parent="1" source="462" target="14">
                    <mxGeometry relative="1" as="geometry">
                        <mxPoint x="1415" y="60" as="sourcePoint"/>
                        <mxPoint x="1490" y="40" as="targetPoint"/>
                    </mxGeometry>
                </mxCell>
                <mxCell id="469" value="" style="endArrow=none;html=1;rounded=0;entryX=0.5;entryY=1;entryDx=0;entryDy=0;exitX=1;exitY=0;exitDx=0;exitDy=0;" edge="1" parent="1" source="463" target="14">
                    <mxGeometry relative="1" as="geometry">
                        <mxPoint x="1402.4999098908247" y="94.37503191366636" as="sourcePoint"/>
                        <mxPoint x="1490" y="40" as="targetPoint"/>
                    </mxGeometry>
                </mxCell>
                <mxCell id="470" value="" style="endArrow=none;html=1;rounded=0;entryX=0.5;entryY=1;entryDx=0;entryDy=0;exitX=0.5;exitY=0;exitDx=0;exitDy=0;" edge="1" parent="1" source="464" target="14">
                    <mxGeometry relative="1" as="geometry">
                        <mxPoint x="1412.4999098908593" y="134.3750319136543" as="sourcePoint"/>
                        <mxPoint x="1490" y="40" as="targetPoint"/>
                    </mxGeometry>
                </mxCell>
                <mxCell id="471" value="" style="endArrow=none;html=1;rounded=0;entryX=0.5;entryY=1;entryDx=0;entryDy=0;exitX=0.5;exitY=0;exitDx=0;exitDy=0;" edge="1" parent="1" source="466" target="14">
                    <mxGeometry relative="1" as="geometry">
                        <mxPoint x="1427.5" y="165" as="sourcePoint"/>
                        <mxPoint x="1490" y="40" as="targetPoint"/>
                    </mxGeometry>
                </mxCell>
                <mxCell id="472" value="" style="endArrow=none;html=1;rounded=0;entryX=0.5;entryY=1;entryDx=0;entryDy=0;exitX=0;exitY=0;exitDx=0;exitDy=0;" edge="1" parent="1" source="465" target="14">
                    <mxGeometry relative="1" as="geometry">
                        <mxPoint x="1557.5" y="70" as="sourcePoint"/>
                        <mxPoint x="1490" y="40" as="targetPoint"/>
                    </mxGeometry>
                </mxCell>
                <mxCell id="473" value="address_id" style="ellipse;whiteSpace=wrap;html=1;align=center;fontStyle=4;" vertex="1" parent="1">
                    <mxGeometry x="1265" y="-60" width="100" height="40" as="geometry"/>
                </mxCell>
                <mxCell id="474" value="&lt;span style=&quot;border-bottom: 1px dotted&quot;&gt;user_id&lt;/span&gt;" style="ellipse;whiteSpace=wrap;html=1;align=center;" vertex="1" parent="1">
                    <mxGeometry x="1330" y="-10" width="65" height="30" as="geometry"/>
                </mxCell>
                <mxCell id="475" value="address_type" style="ellipse;whiteSpace=wrap;html=1;align=center;" vertex="1" parent="1">
                    <mxGeometry x="1330" y="30" width="100" height="40" as="geometry"/>
                </mxCell>
                <mxCell id="476" value="address_line1" style="ellipse;whiteSpace=wrap;html=1;align=center;" vertex="1" parent="1">
                    <mxGeometry x="1365" y="75" width="100" height="40" as="geometry"/>
                </mxCell>
                <mxCell id="477" value="address_line2" style="ellipse;whiteSpace=wrap;html=1;align=center;" vertex="1" parent="1">
                    <mxGeometry x="1440" y="115" width="100" height="40" as="geometry"/>
                </mxCell>
                <mxCell id="478" value="city" style="ellipse;whiteSpace=wrap;html=1;align=center;" vertex="1" parent="1">
                    <mxGeometry x="1510" y="85" width="50" height="25" as="geometry"/>
                </mxCell>
                <mxCell id="479" value="state" style="ellipse;whiteSpace=wrap;html=1;align=center;" vertex="1" parent="1">
                    <mxGeometry x="1562.5" y="70" width="57.5" height="25" as="geometry"/>
                </mxCell>
                <mxCell id="480" value="postal_code" style="ellipse;whiteSpace=wrap;html=1;align=center;" vertex="1" parent="1">
                    <mxGeometry x="1550" y="20" width="90" height="32.5" as="geometry"/>
                </mxCell>
                <mxCell id="481" value="country" style="ellipse;whiteSpace=wrap;html=1;align=center;" vertex="1" parent="1">
                    <mxGeometry x="1570" y="-22.5" width="90" height="32.5" as="geometry"/>
                </mxCell>
                <mxCell id="482" value="is_default" style="ellipse;whiteSpace=wrap;html=1;align=center;" vertex="1" parent="1">
                    <mxGeometry x="1577.5" y="-62.5" width="90" height="32.5" as="geometry"/>
                </mxCell>
                <mxCell id="483" value="created_at" style="ellipse;whiteSpace=wrap;html=1;align=center;" vertex="1" parent="1">
                    <mxGeometry x="1677.5" y="-82.5" width="90" height="32.5" as="geometry"/>
                </mxCell>
                <mxCell id="484" value="updated_at" style="ellipse;whiteSpace=wrap;html=1;align=center;" vertex="1" parent="1">
                    <mxGeometry x="1600" y="-120" width="90" height="32.5" as="geometry"/>
                </mxCell>
                <mxCell id="485" value="" style="endArrow=none;html=1;rounded=0;entryX=0.5;entryY=1;entryDx=0;entryDy=0;exitX=0.5;exitY=0;exitDx=0;exitDy=0;" edge="1" parent="1" source="473" target="42">
                    <mxGeometry relative="1" as="geometry">
                        <mxPoint x="1260" y="270" as="sourcePoint"/>
                        <mxPoint x="1554.7763368155252" y="184.1946105370273" as="targetPoint"/>
                    </mxGeometry>
                </mxCell>
                <mxCell id="486" value="" style="endArrow=none;html=1;rounded=0;entryX=0.5;entryY=1;entryDx=0;entryDy=0;exitX=1;exitY=0;exitDx=0;exitDy=0;" edge="1" parent="1" source="474" target="42">
                    <mxGeometry relative="1" as="geometry">
                        <mxPoint x="1325" y="-50" as="sourcePoint"/>
                        <mxPoint x="1345" y="-115" as="targetPoint"/>
                    </mxGeometry>
                </mxCell>
                <mxCell id="487" value="" style="endArrow=none;html=1;rounded=0;entryX=0.5;entryY=1;entryDx=0;entryDy=0;exitX=1;exitY=0;exitDx=0;exitDy=0;" edge="1" parent="1" source="475" target="42">
                    <mxGeometry relative="1" as="geometry">
                        <mxPoint x="1395.3920701437382" y="4.352525514540503" as="sourcePoint"/>
                        <mxPoint x="1345" y="-115" as="targetPoint"/>
                    </mxGeometry>
                </mxCell>
                <mxCell id="488" value="" style="endArrow=none;html=1;rounded=0;entryX=0.5;entryY=1;entryDx=0;entryDy=0;exitX=1;exitY=0;exitDx=0;exitDy=0;" edge="1" parent="1" source="476" target="42">
                    <mxGeometry relative="1" as="geometry">
                        <mxPoint x="1425.223663184503" y="45.80538946296156" as="sourcePoint"/>
                        <mxPoint x="1345" y="-115" as="targetPoint"/>
                    </mxGeometry>
                </mxCell>
                <mxCell id="489" value="" style="endArrow=none;html=1;rounded=0;entryX=0.5;entryY=1;entryDx=0;entryDy=0;exitX=0.5;exitY=0;exitDx=0;exitDy=0;" edge="1" parent="1" source="477" target="42">
                    <mxGeometry relative="1" as="geometry">
                        <mxPoint x="1460.223663184489" y="90.80538946296724" as="sourcePoint"/>
                        <mxPoint x="1345" y="-115" as="targetPoint"/>
                    </mxGeometry>
                </mxCell>
                <mxCell id="491" value="" style="endArrow=none;html=1;rounded=0;entryX=0.5;entryY=1;entryDx=0;entryDy=0;exitX=0.5;exitY=0;exitDx=0;exitDy=0;" edge="1" parent="1" source="478" target="42">
                    <mxGeometry relative="1" as="geometry">
                        <mxPoint x="1500" y="125" as="sourcePoint"/>
                        <mxPoint x="1345" y="-115" as="targetPoint"/>
                    </mxGeometry>
                </mxCell>
                <mxCell id="492" value="" style="endArrow=none;html=1;rounded=0;entryX=0.5;entryY=1;entryDx=0;entryDy=0;exitX=0;exitY=0;exitDx=0;exitDy=0;" edge="1" parent="1" source="479" target="42">
                    <mxGeometry relative="1" as="geometry">
                        <mxPoint x="1545" y="95" as="sourcePoint"/>
                        <mxPoint x="1345" y="-115" as="targetPoint"/>
                    </mxGeometry>
                </mxCell>
                <mxCell id="493" value="" style="endArrow=none;html=1;rounded=0;entryX=0.5;entryY=1;entryDx=0;entryDy=0;exitX=0;exitY=0;exitDx=0;exitDy=0;" edge="1" parent="1" source="480" target="42">
                    <mxGeometry relative="1" as="geometry">
                        <mxPoint x="1580.5971987611601" y="83.80408368890949" as="sourcePoint"/>
                        <mxPoint x="1345" y="-115" as="targetPoint"/>
                    </mxGeometry>
                </mxCell>
                <mxCell id="494" value="" style="endArrow=none;html=1;rounded=0;entryX=0.5;entryY=1;entryDx=0;entryDy=0;exitX=0;exitY=0;exitDx=0;exitDy=0;" edge="1" parent="1" source="481" target="42">
                    <mxGeometry relative="1" as="geometry">
                        <mxPoint x="1572.6869546138855" y="34.940434114859954" as="sourcePoint"/>
                        <mxPoint x="1345" y="-115" as="targetPoint"/>
                    </mxGeometry>
                </mxCell>
                <mxCell id="495" value="" style="endArrow=none;html=1;rounded=0;entryX=0.5;entryY=1;entryDx=0;entryDy=0;exitX=0;exitY=0.5;exitDx=0;exitDy=0;" edge="1" parent="1" source="482" target="42">
                    <mxGeometry relative="1" as="geometry">
                        <mxPoint x="1592.6869546139233" y="-7.5595658851270855" as="sourcePoint"/>
                        <mxPoint x="1345" y="-115" as="targetPoint"/>
                    </mxGeometry>
                </mxCell>
                <mxCell id="496" value="" style="endArrow=none;html=1;rounded=0;entryX=0.5;entryY=1;entryDx=0;entryDy=0;exitX=0;exitY=0.5;exitDx=0;exitDy=0;" edge="1" parent="1" source="483" target="42">
                    <mxGeometry relative="1" as="geometry">
                        <mxPoint x="1587.5000000000077" y="-36.25" as="sourcePoint"/>
                        <mxPoint x="1345" y="-115" as="targetPoint"/>
                    </mxGeometry>
                </mxCell>
                <mxCell id="497" value="" style="endArrow=none;html=1;rounded=0;entryX=0.5;entryY=1;entryDx=0;entryDy=0;exitX=0;exitY=0.5;exitDx=0;exitDy=0;" edge="1" parent="1" source="484" target="42">
                    <mxGeometry relative="1" as="geometry">
                        <mxPoint x="1687.4999999999918" y="-56.24999999999977" as="sourcePoint"/>
                        <mxPoint x="1345" y="-114.99999999999977" as="targetPoint"/>
                    </mxGeometry>
                </mxCell>
                <mxCell id="498" value="payment_method_id" style="ellipse;whiteSpace=wrap;html=1;align=center;fontStyle=4;" vertex="1" parent="1">
                    <mxGeometry x="1275" y="-260" width="135" height="40" as="geometry"/>
                </mxCell>
                <mxCell id="499" value="&lt;span style=&quot;border-bottom: 1px dotted&quot;&gt;user_id&lt;/span&gt;" style="ellipse;whiteSpace=wrap;html=1;align=center;" vertex="1" parent="1">
                    <mxGeometry x="1375" y="-325" width="65" height="30" as="geometry"/>
                </mxCell>
                <mxCell id="500" value="payment_type" style="ellipse;whiteSpace=wrap;html=1;align=center;" vertex="1" parent="1">
                    <mxGeometry x="1450" y="-300" width="100" height="40" as="geometry"/>
                </mxCell>
                <mxCell id="501" value="card_last_four" style="ellipse;whiteSpace=wrap;html=1;align=center;" vertex="1" parent="1">
                    <mxGeometry x="1545" y="-260" width="100" height="40" as="geometry"/>
                </mxCell>
                <mxCell id="502" value="card_brand" style="ellipse;whiteSpace=wrap;html=1;align=center;" vertex="1" parent="1">
                    <mxGeometry x="1640" y="-290" width="100" height="40" as="geometry"/>
                </mxCell>
                <mxCell id="503" value="expiry_date" style="ellipse;whiteSpace=wrap;html=1;align=center;" vertex="1" parent="1">
                    <mxGeometry x="1725" y="-330" width="100" height="40" as="geometry"/>
                </mxCell>
                <mxCell id="504" value="is_default" style="ellipse;whiteSpace=wrap;html=1;align=center;" vertex="1" parent="1">
                    <mxGeometry x="1760" y="-380" width="100" height="40" as="geometry"/>
                </mxCell>
                <mxCell id="505" value="created_at" style="ellipse;whiteSpace=wrap;html=1;align=center;" vertex="1" parent="1">
                    <mxGeometry x="1782.5" y="-440" width="100" height="40" as="geometry"/>
                </mxCell>
                <mxCell id="506" value="updated_at" style="ellipse;whiteSpace=wrap;html=1;align=center;" vertex="1" parent="1">
                    <mxGeometry x="1750" y="-488.57" width="100" height="40" as="geometry"/>
                </mxCell>
                <mxCell id="507" value="" style="endArrow=none;html=1;rounded=0;entryX=0.5;entryY=1;entryDx=0;entryDy=0;exitX=0;exitY=0;exitDx=0;exitDy=0;" edge="1" parent="1" source="498" target="43">
                    <mxGeometry relative="1" as="geometry">
                        <mxPoint x="1540.0000000000014" y="-458.75" as="sourcePoint"/>
                        <mxPoint x="1275" y="-480" as="targetPoint"/>
                    </mxGeometry>
                </mxCell>
                <mxCell id="508" value="" style="endArrow=none;html=1;rounded=0;entryX=0.5;entryY=1;entryDx=0;entryDy=0;exitX=0;exitY=0;exitDx=0;exitDy=0;" edge="1" parent="1" source="506" target="43">
                    <mxGeometry relative="1" as="geometry">
                        <mxPoint x="1352.5" y="-420" as="sourcePoint"/>
                        <mxPoint x="1352.5" y="-480" as="targetPoint"/>
                    </mxGeometry>
                </mxCell>
                <mxCell id="509" value="" style="endArrow=none;html=1;rounded=0;entryX=0.5;entryY=1;entryDx=0;entryDy=0;exitX=0;exitY=0;exitDx=0;exitDy=0;" edge="1" parent="1" source="505" target="43">
                    <mxGeometry relative="1" as="geometry">
                        <mxPoint x="1644.7993866870793" y="-524.2037562490734" as="sourcePoint"/>
                        <mxPoint x="1352.5" y="-480" as="targetPoint"/>
                    </mxGeometry>
                </mxCell>
                <mxCell id="510" value="" style="endArrow=none;html=1;rounded=0;entryX=0.5;entryY=1;entryDx=0;entryDy=0;exitX=0.5;exitY=0;exitDx=0;exitDy=0;" edge="1" parent="1" source="504" target="43">
                    <mxGeometry relative="1" as="geometry">
                        <mxPoint x="1674.7993866870975" y="-454.20375624906615" as="sourcePoint"/>
                        <mxPoint x="1352.5" y="-480" as="targetPoint"/>
                    </mxGeometry>
                </mxCell>
                <mxCell id="511" value="" style="endArrow=none;html=1;rounded=0;entryX=0.5;entryY=1;entryDx=0;entryDy=0;exitX=0;exitY=0;exitDx=0;exitDy=0;" edge="1" parent="1" source="503" target="43">
                    <mxGeometry relative="1" as="geometry">
                        <mxPoint x="1680" y="-410" as="sourcePoint"/>
                        <mxPoint x="1352.5" y="-480" as="targetPoint"/>
                    </mxGeometry>
                </mxCell>
                <mxCell id="512" value="" style="endArrow=none;html=1;rounded=0;entryX=0.5;entryY=1;entryDx=0;entryDy=0;exitX=0.5;exitY=0;exitDx=0;exitDy=0;" edge="1" parent="1" source="502" target="43">
                    <mxGeometry relative="1" as="geometry">
                        <mxPoint x="1592.2993866870793" y="-354.2037562490734" as="sourcePoint"/>
                        <mxPoint x="1352.5" y="-480" as="targetPoint"/>
                    </mxGeometry>
                </mxCell>
                <mxCell id="513" value="" style="endArrow=none;html=1;rounded=0;entryX=0.5;entryY=1;entryDx=0;entryDy=0;exitX=1;exitY=0;exitDx=0;exitDy=0;" edge="1" parent="1" source="501" target="43">
                    <mxGeometry relative="1" as="geometry">
                        <mxPoint x="1552.5" y="-310" as="sourcePoint"/>
                        <mxPoint x="1352.5" y="-480" as="targetPoint"/>
                    </mxGeometry>
                </mxCell>
                <mxCell id="514" value="" style="endArrow=none;html=1;rounded=0;entryX=0.5;entryY=1;entryDx=0;entryDy=0;exitX=0;exitY=0;exitDx=0;exitDy=0;" edge="1" parent="1" source="499" target="43">
                    <mxGeometry relative="1" as="geometry">
                        <mxPoint x="1304.9636058482156" y="-244.1991826687149" as="sourcePoint"/>
                        <mxPoint x="1352.5" y="-480" as="targetPoint"/>
                    </mxGeometry>
                </mxCell>
                <mxCell id="515" value="" style="endArrow=none;html=1;rounded=0;entryX=0.5;entryY=1;entryDx=0;entryDy=0;exitX=0.5;exitY=0;exitDx=0;exitDy=0;" edge="1" parent="1" source="500" target="43">
                    <mxGeometry relative="1" as="geometry">
                        <mxPoint x="1394.4672125142529" y="-310.582632088046" as="sourcePoint"/>
                        <mxPoint x="1352.5" y="-480" as="targetPoint"/>
                    </mxGeometry>
                </mxCell>
                <mxCell id="516" value="setting_id" style="ellipse;whiteSpace=wrap;html=1;align=center;fontStyle=4;" vertex="1" parent="1">
                    <mxGeometry x="825" y="-920" width="135" height="40" as="geometry"/>
                </mxCell>
                <mxCell id="517" value="&lt;span style=&quot;border-bottom: 1px dotted&quot;&gt;user_id&lt;/span&gt;" style="ellipse;whiteSpace=wrap;html=1;align=center;" vertex="1" parent="1">
                    <mxGeometry x="895" y="-960" width="65" height="30" as="geometry"/>
                </mxCell>
                <mxCell id="518" value="setting_key" style="ellipse;whiteSpace=wrap;html=1;align=center;" vertex="1" parent="1">
                    <mxGeometry x="860" y="-1020" width="100" height="40" as="geometry"/>
                </mxCell>
                <mxCell id="519" value="setting_value" style="ellipse;whiteSpace=wrap;html=1;align=center;" vertex="1" parent="1">
                    <mxGeometry x="990" y="-1050" width="100" height="40" as="geometry"/>
                </mxCell>
                <mxCell id="520" value="created_at" style="ellipse;whiteSpace=wrap;html=1;align=center;" vertex="1" parent="1">
                    <mxGeometry x="1065" y="-1000" width="100" height="40" as="geometry"/>
                </mxCell>
                <mxCell id="521" value="updated_at" style="ellipse;whiteSpace=wrap;html=1;align=center;" vertex="1" parent="1">
                    <mxGeometry x="1080" y="-950" width="100" height="40" as="geometry"/>
                </mxCell>
                <mxCell id="522" value="" style="endArrow=none;html=1;rounded=0;exitX=1;exitY=1;exitDx=0;exitDy=0;entryX=0.5;entryY=0;entryDx=0;entryDy=0;" edge="1" parent="1" source="516" target="44">
                    <mxGeometry relative="1" as="geometry">
                        <mxPoint x="970" y="-960" as="sourcePoint"/>
                        <mxPoint x="898.75" y="-829.9999999999999" as="targetPoint"/>
                    </mxGeometry>
                </mxCell>
                <mxCell id="523" value="" style="endArrow=none;html=1;rounded=0;exitX=1;exitY=1;exitDx=0;exitDy=0;entryX=0.5;entryY=0;entryDx=0;entryDy=0;" edge="1" parent="1" source="517" target="44">
                    <mxGeometry relative="1" as="geometry">
                        <mxPoint x="950.102936267268" y="-875.8204019629414" as="sourcePoint"/>
                        <mxPoint x="1040" y="-850" as="targetPoint"/>
                    </mxGeometry>
                </mxCell>
                <mxCell id="524" value="" style="endArrow=none;html=1;rounded=0;exitX=1;exitY=1;exitDx=0;exitDy=0;entryX=0.5;entryY=0;entryDx=0;entryDy=0;" edge="1" parent="1" source="518" target="44">
                    <mxGeometry relative="1" as="geometry">
                        <mxPoint x="960.3536549103692" y="-924.3349610418278" as="sourcePoint"/>
                        <mxPoint x="1040" y="-850" as="targetPoint"/>
                    </mxGeometry>
                </mxCell>
                <mxCell id="525" value="" style="endArrow=none;html=1;rounded=0;exitX=0;exitY=1;exitDx=0;exitDy=0;entryX=0.5;entryY=0;entryDx=0;entryDy=0;" edge="1" parent="1" source="519" target="44">
                    <mxGeometry relative="1" as="geometry">
                        <mxPoint x="955.3553390593274" y="-975.857864376269" as="sourcePoint"/>
                        <mxPoint x="1040" y="-850" as="targetPoint"/>
                    </mxGeometry>
                </mxCell>
                <mxCell id="526" value="" style="endArrow=none;html=1;rounded=0;exitX=0;exitY=1;exitDx=0;exitDy=0;entryX=0.5;entryY=0;entryDx=0;entryDy=0;" edge="1" parent="1" source="520" target="44">
                    <mxGeometry relative="1" as="geometry">
                        <mxPoint x="1014.6446609406726" y="-1005.8578643762689" as="sourcePoint"/>
                        <mxPoint x="1040" y="-850" as="targetPoint"/>
                    </mxGeometry>
                </mxCell>
                <mxCell id="527" value="" style="endArrow=none;html=1;rounded=0;exitX=0;exitY=1;exitDx=0;exitDy=0;entryX=0.5;entryY=0;entryDx=0;entryDy=0;" edge="1" parent="1" source="521" target="44">
                    <mxGeometry relative="1" as="geometry">
                        <mxPoint x="1089.6446609406726" y="-955.8578643762687" as="sourcePoint"/>
                        <mxPoint x="1040" y="-850" as="targetPoint"/>
                    </mxGeometry>
                </mxCell>
            </root>
        </mxGraphModel>
    </diagram>
</mxfile>